<svg xmlns="http://www.w3.org/2000/svg" viewBox="0 0 88 19" enable-background="new 0 0 88 19"><path d="m86.8 11.7c-.8-.9-1.9-1.6-3.2-2.1 2.9-1.9 5.1-5.6 2.4-8.4-1.9-2-5-1.1-6.8.4-2.2 1.7-3.8 4.8-4.9 7.5-23.2-.1-46.6.7-69.9 1.6 1.9-1.3 3.8-2.6 5.6-3.9 1.9-1.4 5-2.9 6.2-5 .5-.9-.3-2.1-1.4-1.7-2.3.6-4.3 2.9-6.2 4.3-2.6 1.8-5.2 3.7-7.9 5.4-.9.6-.9 1.9 0 2.4 3.4 2 6.2 4.7 9.5 6.7 1 .6 2.1-.9 1.2-1.6-2-1.6-4-3.2-6-4.8 22.1 1.4 44.4-.1 66.6-.6 5.1 1.8 9.7 8.5 15.2 4.1 1.5-1.2.6-3.1-.4-4.3m-3.9-9.4c2.5-.1 2.3 2.1 1.5 3.6-.8 1.6-2.5 2.7-4.4 2.8-.4 0-.6.2-.8.4-.1 0-.2-.1-.3-.1-.6 0-1.3 0-1.9 0 1.4-2.8 2.9-6.6 5.9-6.7m1.5 12.8c-1.5.6-2.9 0-4.3-.6-1.6-.8-3.1-1.8-4.7-2.7 1.1 0 2.3 0 3.4-.1.6 0 1-.3 1.2-.8 1.7.1 3.4.9 4.8 1.9 1 .8 1.5 1.6-.4 2.3" fill="#fedb47"/></svg>