<svg xmlns="http://www.w3.org/2000/svg" viewBox="0 0 30 38" enable-background="new 0 0 30 38"><path d="m11.5 33.6c0 0-1.7.4-2.1.5-1 .2-1.7-1-2.7-1.4-2.3-1.9-4.6-7.1-6-9.9-.5-1.4-1-2.9-.5-4.3v-2.3c0-1 0-1.8.9-2.8 2.8-2.7 5.9-7 8.7-10.2.9-1 2.3-1.9 3.2-2.9.4-.5 1.3-.5 2.2 0 .8 0 .8.5.8 1.4 0 1-.3 1.8-.3 2.8s0 1.4-.5 1.9c-1.3 1.5-2.2 2.4-3.7 3.7-.4 1-1.3 1.5-2.2 2.4-1.4 1.4-2.3 3.3-3.2 4.7-.4.4-.4 1.3-.4 1.8 0 2.5 4.9 11.2 6.2 12.8.4.6.5.9.5 1.9h-.9zm15.4-5.3c1 .6 1.5.7 2.2 1.4 1.5 1.5.8 3.3 0 4.7 0 .5-.5 1-.5 1.4-.7.7-1 2.3-1.3 2.3-.6 0-1-.5-1.3-.5-1.3 0-8.8-7.9-9.2-9.6-.3-.6-1.4-1.4-1.6-1.9-1.8-2.3-2.9-4.7-3.2-7.5-.6-2.2 0-4.2 1.3-5.6.9-1.3 2.2-2.3 3.2-3.7 1.8-2.3 3.7-4.1 5.5-6.5.5-.5.9-1 1.7-1 .6 0 2.2 0 2.2.5.9 1-.4 2.3.6 3.3.5.4 0 2.4 0 2.7 0 1-.5 1.9-1 2.9-.4 1-2.8 3.2-2.8 3.7-.3.5-.9 1.4-1.3 1.8-.7.9-1 1.6-1.8 1.9-1 .5-1 1.7-.8 2.3 2.6 3.4 7.5 7.4 8.1 7.4" fill="#010101"/></svg>