<?xml version="1.0" encoding="utf-8"?>
<!-- Generator: Adobe Illustrator 16.0.0, SVG Export Plug-In . SVG Version: 6.00 Build 0)  -->
<!DOCTYPE svg PUBLIC "-//W3C//DTD SVG 1.1//EN" "http://www.w3.org/Graphics/SVG/1.1/DTD/svg11.dtd">
<svg version="1.1" id="Layer_1" xmlns="http://www.w3.org/2000/svg" xmlns:xlink="http://www.w3.org/1999/xlink" x="0px" y="0px"
	 width="12px" height="7px" viewBox="0 0 12 7" enable-background="new 0 0 12 7" xml:space="preserve">
<path fill-rule="evenodd" clip-rule="evenodd" d="M5.534,6.826C5.941,7.044,6.399,7.09,6.843,6.771
	c1.951-1.516,4.098-3.873,5.056-5.267c0.386-0.794-0.448-1.188-0.583-1.295c-0.395-0.145-0.871-0.08-1.072,0.017
	C8.937,1.437,6.671,4.358,6.225,4.338C5.558,4.32,3.248,1.359,1.817,0.094c0,0-0.697-0.271-1.229,0.11
	C0.053,0.589-0.265,1.613,0.292,2.183C2.039,3.662,3.478,5.092,5.225,6.57C5.182,6.548,5.448,6.783,5.534,6.826z"/>
</svg>
