<svg xmlns="http://www.w3.org/2000/svg" viewBox="0 0 83.1 22" enable-background="new 0 0 83.1 22"><path d="m82.1 13.1c-12.6-3.3-26.3-2.9-39.2-2.6-10.6.2-21.2.7-31.9 1.3 3.3-2.1 5.2-6.6 4.9-10.4-.1-.8-.6-1.2-1.3-1.3-7.5-.8-11.4 5.6-10.2 12-1.1.1-2.3.1-3.4.2-1.3.1-1.3 2 0 2.1 1.4.1 2.8.1 4.1.2.1.2.1.4.2.5 0 0 .1.1.1.1 0 4.6 3.4 8.7 8.4 5.8 1.6-1 3.1-3 2.1-5-.3-.6-.7-1.1-1.3-1.4 8.7-.1 17.4-.7 26-.9 13.9-.4 27.3.4 41 2.2 1.7.2 2-2.4.5-2.8m-68.8-10.5c-.1 1.6-.5 3.1-1.5 4.5-1.1 1.8-3 2.6-4.6 3.8-.4.3-.4.7-.3 1 0 0-.1 0-.1 0-1-4.6 1.5-9.1 6.5-9.3m-.9 16.5c-1.1.7-2.5 1-3.6.3-1.2-.7-1.5-2.2-1.6-3.6 2.5 0 9.2.7 5.2 3.3" fill="#fedb47"/></svg>