<svg xmlns="http://www.w3.org/2000/svg" viewBox="0 0 90 25" enable-background="new 0 0 90 25"><path d="m88.5 11.6c-1.2 0-2.3 0-3.5 0-.2-.1-.5-.1-.7 0-.1 0-.2 0-.3 0 1-5.5-5.2-15.3-10.6-10-3.2 3.1 1 7.3 4.9 10-11.3-.1-22.5-.1-33.8-.2-14.3-.1-29.6-1.6-43.8.4-.9.1-.9 1.8 0 1.9 13.5 2 28 .8 41.7.9 12 .1 23.9.3 35.9.3-2.3 2.4-3.7 5.3-3.6 8.9 0 .7.6 1.3 1.3 1.3 5.1 0 8.3-5.4 9.4-10.3 1 0 2 0 3.1 0 2-.1 2-3.2 0-3.2m-12.5-5.6c-.8-1-2.3-4 1.3-3.5 1.3.2 2.4 1.8 3.1 2.8 1.1 1.6 1.9 3.6 1.9 5.6-2.4-1.1-4.6-3-6.3-4.9m1.4 16.2c.4-3.2 2.3-5.5 4.9-7.4.1 0 .1 0 .2 0-1.2 3-2 6.6-5.1 7.4" fill="#fedb47"/></svg>