<svg xmlns="http://www.w3.org/2000/svg" viewBox="0 0 20 14"><path d="m17.946 13.999h-15.893c-1.138 0-2.063-.891-2.063-1.988v-10.01c0-1.096.925-1.987 2.063-1.987h15.893c1.137 0 2.063.891 2.063 1.987v10.01c0 1.097-.926 1.988-2.063 1.988m-7.946-5.194l8.169-7.02c-.057-.056-.135-.092-.223-.092h-15.893c-.088 0-.166.036-.223.092l8.17 7.02m8.259-5.966l-4.848 4.165 4.848 4.165v-8.33m-16.206 9.474h15.893c.088 0 .166-.036.223-.092l-5.416-4.652-2.462 2.115c-.083.071-.187.107-.291.107-.105 0-.209-.036-.292-.107l-2.462-2.115-5.416 4.651c.057.057.135.093.223.093m4.535-5.309l-4.848-4.165v8.33l4.848-4.165" fill-rule="evenodd"/></svg>