<svg xmlns="http://www.w3.org/2000/svg" viewBox="0 0 11 18" enable-background="new 0 0 11 18"><path d="m5.5 9.1c2.6 0 4.7-2 4.7-4.5 0-2.5-2-4.6-4.6-4.6-2.6 0-4.7 2-4.7 4.5-.1 2.5 2 4.6 4.6 4.6m0-6.8c1.3 0 2.3 1 2.3 2.2 0 1.2-1 2.2-2.3 2.2-1.3 0-2.3-1-2.3-2.2 0-1.2 1-2.2 2.3-2.2m5.2 8.6c.4-.4.4-.8.1-1.3-.3-.4-.7-.6-1.2-.5-.3.1-.5.2-.7.3-2 1.4-4.9 1.4-6.9 0-.1-.1-.2-.1-.3-.2-.6-.3-1.1-.1-1.5.3-.4.5-.3 1.1.1 1.5.1.1.3.2.4.3 1.1.8 2.4 1.2 3.8 1.3-.1.1-.2.2-.2.2-1 1-2.1 2.1-3.1 3.1-.2.2-.4.4-.4.8 0 .5.3.9.7 1.1.5.3.9.2 1.3-.1.8-.8 1.6-1.6 2.4-2.4.2-.2.3-.2.5 0 .8.8 1.6 1.6 2.4 2.4.3.1.5.3.8.3.5 0 1-.3 1.2-.7.2-.4.1-.9-.2-1.2-1.1-1-2.1-2.1-3.2-3.1-.1-.1-.1-.1-.2-.3.8-.1 1.6-.2 2.3-.5.7-.3 1.3-.7 1.9-1.3"/></svg>