<svg xmlns="http://www.w3.org/2000/svg" viewBox="0 0 20 16"><path d="m19.219 3.183c-.521-.481-1.149-.721-1.885-.721h-2.334l-.531-1.308c-.132-.314-.373-.585-.724-.813-.351-.227-.71-.341-1.078-.341h-5.333c-.369 0-.728.114-1.079.341-.35.228-.592.499-.724.813l-.531 1.308h-2.333c-.737 0-1.365.24-1.886.721-.521.48-.781 1.061-.781 1.74v8.616c0 .679.26 1.259.781 1.74.521.481 1.149.721 1.886.721h14.667c.736 0 1.364-.24 1.885-.721.521-.481.781-1.061.781-1.74v-8.616c0-.679-.26-1.26-.781-1.74m-9.219 9.588c-2.209 0-4-1.79-4-4 0-2.209 1.791-4 4-4 2.209 0 4 1.791 4 4 0 2.21-1.791 4-4 4" fill="#233ee0" fill-rule="evenodd"/></svg>