<svg fill="#eef0fd" xmlns="http://www.w3.org/2000/svg" viewBox="0 0 199.4 222.1" enable-background="new 0 0 199.4 222.1"><path d="m0 125.5c.8-11.3 1.1-22.6 2.4-33.9 1.8-17.1 6.4-33.3 18.3-46.6 3.2-3.6 5.9-7.7 8.5-11.7 13.9-21.9 33.9-33 59.6-33.3 19.5-.2 38.3 4.5 57 9.3 11.1 2.8 21.5 7.2 30.4 14.5 6 4.9 10.3 10.6 11.2 19.2 2.6 24.1 6.7 48.1 9.1 72.3 1.9 19.3 3.2 38.9 2.7 58.3-.7 24.1-16.8 40.2-40.6 42.8-13.9 1.6-27.8 3-41.7 4-22.3 1.6-44.6 3.1-66.8-.7-18-3.1-32.6-11.5-39-29.5-3.9-10.9-6.5-22.3-8.8-33.7-1.7-8.7-2.4-29.9-2.3-31"/></svg>