<svg xmlns="http://www.w3.org/2000/svg" viewBox="0 0 12 16" enable-background="new 0 0 12 16"><path d="m5.9 13.4c-.6 0-1.1-.1-1.5-.3-.4-.2-.7-.5-.8-.7-.4-.8-.6-1.2-.6-1.2-.1-.4-.3-.7-.6-1-.3-.2-.6-.4-.9-.4-.4 0-.8.2-1.1.5-.3.3-.4.7-.4 1.1 0 .6.2 1.3.7 2.1.4.7 1 1.2 1.7 1.7.9.5 2.2.8 3.6.8 1.2 0 2.3-.2 3.2-.6.9-.5 1.6-1.1 2.1-1.8.5-.8.7-1.6.7-2.5 0-.8-.1-1.4-.4-2-.2-.5-.6-1-1.2-1.4-.5-.4-1.1-.7-1.7-1-1.1-.3-1.8-.5-2.3-.6-.2-.1-.4-.1-.8-.2-.3-.1-.5-.2-.6-.2-.4-.1-.6-.2-.8-.3-.2-.2-.4-.4-.6-.6-.2-.2-.2-.4-.2-.7 0-.4.2-.8.7-1.1.4-.3 1-.5 1.8-.5s1.2.2 1.6.5c.4.4.7.8.9 1.3.3.4.5.7.6.9.2.2.5.3.9.3.4 0 .8-.2 1.1-.5.3-.3.4-.7.4-1.1 0-.3-.1-.8-.3-1.3-.3-.4-.6-.8-1-1.2-.4-.4-1-.7-1.7-1-.8-.3-1.6-.4-2.4-.4-1.1 0-2.1.2-3 .6-.9.3-1.5.8-2 1.5-.5.7-.7 1.4-.7 2.3 0 .9.2 1.7.7 2.3.5.7 1.1 1.2 1.8 1.4.7.4 1.6.7 2.7.9.2 0 .4.1.7.2.3.1.5.2.7.2.2 0 .4.1.5.1.4.2.8.4 1.1.7.3.2.4.6.4 1.1 0 .6-.2 1.1-.7 1.4-.7.5-1.4.7-2.3.7"/></svg>