<svg xmlns="http://www.w3.org/2000/svg" width="232.66" viewBox="0 0 232.657 30.344"><path d="m230.82 4.847c-7.01-5.248-12.09 6.797-14.347 11.474-.132.273-.166.538-.136.786-2.842-.148-5.687-.285-8.531-.425 3.712-2.812 5.722-7.81 4.485-12.389-.135-.499-.644-.91-1.18-.885-6.87.33-10.778 6.593-10.24 12.943-3.503-.162-7.01-.316-10.511-.463 2.168-2.01 4.114-4.432 5.56-6.46 2.784-3.903-1.126-5.72-4.821-4.827-3.188.77-9.747 7.506-7.02 11.04-23.568-.924-47.16-1.484-70.73-1.492-22.553-.007-45.38 1.971-68.06 1.86.008-.786-.652-1.269-1.317-1.171.811-4.316-.093-16.306-6.04-14.671-7.357 2.02-1.504 11.161 2.629 15.763-.027.006-.054.014-.08.02-4.142-.078-8.278-.227-12.406-.489-.269-.177-.614-.259-.958-.232.443-5.236-.606-14.354-6.299-12.916-6.188 1.563-1.341 8.649 2.156 12.763-3.179-.272-6.354-.592-9.52-1.014-.42-.443-1.194-.58-1.771-.24-.201-.029-.403-.053-.605-.082-.386-.189-.782-.394-1.18-.608.938-5.255-2.334-10.169-7.233-12.331-.604-.267-1.473-.222-1.799.465-2.651 5.589 1.218 10.151 5.847 13.188-3.593 1.262-5.897 4.661-6.16 9.03-.051.839.702 1.346 1.448 1.427 5.515.599 9.454-4.285 11.37-8.939 2.487.534 4.987.97 7.496 1.335-2.655 1.819-4.567 4.558-2.777 7.643.991 1.708 3.094 1.677 4.649.838 2.648-1.43 4.216-4.8 5.278-7.644 2.407.218 4.819.376 7.236.489-1.548 1.54-2.269 3.623-1.181 6.146.84 1.947 2.845 2.261 4.647 1.458 2.473-1.101 4.634-4.452 5.788-7.388 4.334.017 8.67-.063 12.994-.19 17.07-.501 34.09-1.397 51.18-1.502 24.703-.151 49.36.794 74.02 1.741-.729 2.44.001 5.165 1.598 7.167 1.497 1.886 4.6 4.966 7.445 4.02 2.246-.748 3.855-1.938 3.865-4.416.007-1.617-1.414-4.27-3.259-6.404 2.73.103 5.46.206 8.19.304-.495 2.872-.47 5.952 1.213 8.387 1.288 1.862 3.562 2.785 5.787 2.219 2.158-.55 3.389-2.639 3.302-4.739-.089-2.149-1.314-4.02-2.849-5.614 2.801.093 5.602.19 8.403.272.006.012.005.023.011.035 1.382 2.578 7.512 11.427 11.594 7.521 3.329-3.185-1.274-7.646-4.665-10.218 5.146-2.325 12.877-8.551 7.486-12.586m-227.97-1.15c3.46 1.687 5.388 4.859 5.615 8.614-3.31-2.029-6.3-4.91-5.615-8.614m.805 18.347c.67-3.039 2.817-5.313 6.082-5.362-1.507 2.511-3.145 4.968-6.082 5.362m16.75 1.32c-1.287-2.218 2.041-4.099 4.378-5.02-1.356 2.606-3.582 6.396-4.378 5.02m1.099-18.605c2.637-.63 3.588 4.837 3.865 8.926-2.597-2.97-6.641-8.263-3.865-8.926m17.06 18.07c-.436.474-1.62 1.717-1.976.632-.843-2.565 1.378-4.01 3.726-4.667.276.006.553.011.829.016-.724 1.41-1.467 2.81-2.579 4.02m-.468-20.1c3.107-1.955 4.404 7.471 4.343 11.231-3.118-3.363-7.465-9.267-4.343-11.231m155.36 3.946c2.331-.073-.857 2.961-1.452 3.604-1.098 1.187-2.297 2.285-3.472 3.396-.583.551-1.268 1.397-1.993 2.06-.411-.017-.821-.032-1.232-.049 1.593-4.377 2.148-8.823 8.149-9.01m-2.427 15.411c.91 1.021 2.828 3.395 1.634 4.833-3.637 4.38-9.762-6.63-7.24-7.662.172-.07.343-.153.514-.234.691.027 1.382.053 2.073.08 1.096.908 2.107 1.959 3.02 2.983m19.08-16.181c.554 4.556-2.712 9.447-7.405 10.253.224-4.701 2.333-9.552 7.405-10.253m-3.499 21.805c-3.877.968-3.725-4.792-3.275-8.04.179.006.358.011.537.017 2.055 1.779 7.06 6.944 2.738 8.02m19.775-1.651c-.704.727-2.594-.455-3.165-.802-2.144-1.303-3.667-3.474-5.05-5.512.401-.39.514-1.019.337-1.564.146-.112.277-.266.382-.472.08-.157.156-.315.235-.471.069.369.274.718.614.925 1.131.688 8.821 5.652 6.648 7.896m.375-13.94c-1.821 1.565-4.295 3.142-6.701 3.613-.088.017-.158.056-.234.087.669-1.365 1.335-2.73 2.098-4.054 1.026-1.78 3.304-5.956 5.902-5.446 4.051.794.411 4.532-1.065 5.8" fill="#2a3fbe" fill-rule="evenodd"/></svg>