<svg xmlns="http://www.w3.org/2000/svg" viewBox="0 0 154 78" enable-background="new 0 0 154 78"><path d="m78 53.4c-3.2-1.1-7-.7-9.9 1-.2-2.8-.9-5.5-2.2-8.1-4.3-8.2-13.1-9.1-21.1-7-2.8.7-1.6 5.1 1.2 4.4 5.5-1.4 10.4-1.6 14.6 2.9 5.1 5.4 3.4 13.3 0 19-3.1 5.1-9.1 8.8-15.1 7.4-8.2-1.9-9.1-12.5-7.7-19.1.6-2.8-3.7-4.1-4.3-1.2-1.9 8.9-.3 18.6 8 23.6 7.1 4.3 15.9 0 20.8-5.6 2.7-3 4.5-6.6 5.3-10.4.4-.1.8-.3 1.2-.7 2-2.2 5.2-2.8 8-1.8 2.7.9 3.9-3.5 1.2-4.4"/><path d="m153.2 4.2c-20.8-17.3-33.9 23.1-36.8 42.3-.1-.2-.1-.3-.2-.5-4-10.1-12.8-15.8-23.5-14.5-2.8.4-2.9 4.9 0 4.5 8.2-1.1 14.2 2.1 18.3 9.3 3.3 5.8 3.8 13.3 1.2 19.4-3.3 7.7-12.3 9.9-19.2 5.9-9.2-5.4-9.3-16.8-4.4-25 1.5-2.5-2.4-4.8-3.9-2.3-5.9 10-5.3 21.1 3.4 29.2 7.3 6.9 18.5 6 25.1-1.2 4.2-4.6 5.5-11.1 4.9-17.3 1.1-.1 2.1-.8 2.2-2.2.5-11 12-59.3 29.7-44.5 2.3 2 5.5-1.2 3.2-3.1"/><path d="m37.6 43.3c-.1 2.9 4.4 2.9 4.5 0 .4-11.8-1.6-26.6-9.9-35.5-10.4-11.1-24.7 3.8-31.6 11.3-2 2.1 1.2 5.3 3.2 3.2 6.7-7.2 19.2-21.1 27.5-8.4 5.3 8.2 6.6 19.9 6.3 29.4"/></svg>