<svg xmlns="http://www.w3.org/2000/svg" viewBox="0 0 15 16" enable-background="new 0 0 15 16"><path d="m8 9.2c-.4-.3-1.3-1.1-1.3-1.5 0-.5.1-.8.9-1.4.8-.7 1.4-1.6 1.4-2.6 0-1.2-.5-2.5-1.6-2.9h1.6l1.1-.8h-4.9c-2.1 0-4.2 1.7-4.2 3.6 0 2 1.5 3.6 3.7 3.6.2 0 .3 0 .4 0-.1.3-.2.6-.2.9 0 .6.3 1 .7 1.4-.3 0-.5 0-.8 0-2.7 0-4.8 1.8-4.8 3.6 0 1.8 2.3 2.9 4.9 2.9 3.1 0 4.7-1.8 4.7-3.6.1-1.4-.3-2.3-1.6-3.2m-2.6-2.5c-1.2 0-2.4-1.4-2.6-3.1-.2-1.7.6-3 1.9-2.9 1.2 0 2.4 1.4 2.6 3.1.2 1.6-.6 3-1.9 2.9m-.5 8.5c-1.9 0-3.2-1.2-3.2-2.6 0-1.4 1.7-2.6 3.5-2.6.4 0 .8.1 1.2.2 1 .7 1.7 1.1 1.9 1.9 0 .2.1.3.1.5 0 1.5-.9 2.6-3.5 2.6m8.2-8.3v-2h-1.5v1.9h-1.9v1.6h1.9v1.9h1.5v-1.9h1.9v-1.5h-1.9"/></svg>