<svg xmlns="http://www.w3.org/2000/svg" xmlns:xlink="http://www.w3.org/1999/xlink" viewBox="0 0.1 29.8 29.9" enable-background="new 0 0.1 29.8 29.9"><defs><use id="2" xlink:href="#7"/><use id="3" xlink:href="#7"/><use id="4" xlink:href="#7"/><use id="5" xlink:href="#7"/><use id="6" xlink:href="#7"/><path id="7" d="m0 0h29.8v29.9h-29.8z"/><clipPath id="0"><use xlink:href="#5"/></clipPath><clipPath id="1"><use xlink:href="#6"/></clipPath><clipPath><use xlink:href="#4"/></clipPath><clipPath><use xlink:href="#2"/></clipPath><clipPath><use xlink:href="#3"/></clipPath></defs><path d="m15.9 2.1c-2 0-3.8.4-5.5 1.1l-3.2-3.1c-3.2 1.5-5.8 4.1-7.2 7.3l3.1 3.1c-.8 1.7-1.2 3.5-1.2 5.5 0 7.7 6.3 14 14 14 7.7 0 14-6.3 14-14s-6.3-13.9-14-13.9" fill="#b0b0b0"/><path d="m14.4 21.7c1.4-3.3 4-5.9 7.2-7.3l-11.3-11.3c-3.2 1.4-5.8 4-7.2 7.3l11.3 11.3"/><path d="m22.5 18.3c-1.9.8-3.4 2.3-4.2 4.2l5.3 1.1-1.1-5.3"/><path d="m22.6 19l.9 4.6c.1 0-.4-2.3-.9-4.6" fill="#fff" clip-path="url(#0)"/><path d="m22.5 18.3c-.4-2-.8-3.9-.8-3.9-3.2 1.4-5.8 4-7.2 7.3l3.8.8c.8-1.9 2.3-3.4 4.2-4.2" fill="#fff" clip-path="url(#1)"/></svg>