<?xml version="1.0" encoding="utf-8"?>
<!-- Generator: Adobe Illustrator 19.0.1, SVG Export Plug-In . SVG Version: 6.00 Build 0)  -->
<svg version="1.1" id="Layer_1" xmlns="http://www.w3.org/2000/svg" xmlns:xlink="http://www.w3.org/1999/xlink" x="0px" y="0px"
	 viewBox="0 0 118 118" style="enable-background:new 0 0 118 118;" xml:space="preserve">
<style type="text/css">
	.st0{fill-rule:evenodd;clip-rule:evenodd;fill:#FFFFFF;}
	.st1{fill-rule:evenodd;clip-rule:evenodd;fill:#FBD844;}
	.st2{fill-rule:evenodd;clip-rule:evenodd;}
	.st3{fill-rule:evenodd;clip-rule:evenodd;fill:#7A86C2;}
	
		.st4{fill-rule:evenodd;clip-rule:evenodd;fill:#FDF7EF;stroke:#000000;stroke-width:1.0984;stroke-linecap:round;stroke-linejoin:round;stroke-miterlimit:22.9256;}
</style>
<g>
	<path class="st0" d="M96.5,77.2c-1.6,2.5-4.5,6.5-6.4,8.9c-1.9,2.4-5.6,5.6-8.2,7.2c-2.6,1.6-6.9,3.9-9.7,5.1
		c-2.8,1.2-7.6,2.3-10.6,2.5c-1,0.1-2.2,0.1-3.6,0.1c-2.6,0-5.3-0.1-7.2-0.3c-3-0.3-7.7-1.7-10.4-3.2c-2.6-1.5-6.7-4.2-9.1-6.1
		c-2.4-1.9-5.6-5.6-7.3-8.2c-1.6-2.6-3.9-6.9-5.1-9.7c-1.2-2.8-2.3-7.6-2.5-10.6c-0.2-3-0.1-7.9,0.3-11c0.4-3.1,2-7.8,3.6-10.5
		c1.6-2.7,4.4-6.8,6.3-9.3c1.9-2.5,5.6-5.9,8.2-7.6c2.6-1.7,7.1-4,9.9-5.3c2.9-1.3,7.8-2.4,10.9-2.6c0.6,0,1.3,0,2.1,0
		c3.1,0,6.7,0.2,9.1,0.6c3.1,0.4,7.8,2,10.5,3.5c2.7,1.5,6.7,4.3,9.1,6.3c2.3,2,5.6,5.7,7.3,8.3c1.7,2.6,3.9,7,5,9.8
		c1.1,2.9,2.1,7.8,2.1,10.8c0,3.1-0.3,8-0.7,11C99.9,70,98.2,74.6,96.5,77.2z"/>
	<path class="st1" d="M58.9,0.9c31.9,0,57.8,25.9,57.8,57.9c0,32-25.9,57.9-57.8,57.9S1.1,90.8,1.1,58.8C1.1,26.8,27,0.9,58.9,0.9
		L58.9,0.9z M58.9,17.4c22.9,0,41.4,18.6,41.4,41.5c0,22.9-18.5,41.5-41.4,41.5S17.5,81.7,17.5,58.8C17.5,35.9,36,17.4,58.9,17.4
		L58.9,17.4z"/>
	<path d="M58.2,118c-2.5,0-5-0.2-6.8-0.5c-4.2-0.8-10.8-2.7-14.8-4.2c-4-1.5-9.9-5.1-13.2-7.8c-3.3-2.8-8.1-7.7-10.8-11
		C10,91,6.6,85.1,5,81.1c-1.5-4-3.5-10.6-4.3-14.8c-0.8-4.2-1-11-0.2-15.1C1.2,47.1,3,40.6,4.6,36.7c1.6-3.9,5-9.7,7.6-12.9
		c2.6-3.2,7.3-8,10.5-10.7c3.2-2.7,8.9-6.2,12.8-7.8c3.8-1.6,10.3-3.6,14.3-4.5C52,0.3,55,0,58.1,0c2.6,0,5.1,0.2,7,0.5
		c4.3,0.8,11,2.6,15.1,4c4.1,1.4,10.2,4.8,13.6,7.6c3.4,2.7,8.4,7.6,11.3,10.9c2.9,3.3,6.5,9.3,8.2,13.3c1.6,4,3.5,10.8,4.2,15.1
		c0.7,4.3,0.7,11.2,0,15.4c-0.7,4.2-2.7,10.7-4.4,14.6c-1.7,3.9-5.2,9.8-7.8,13.1c-2.6,3.3-7.5,8.2-10.8,10.8
		c-3.3,2.7-9.3,6.1-13.2,7.6c-3.9,1.5-10.5,3.4-14.6,4.4C64.4,117.7,61.3,118,58.2,118z M58.1,1.3c-3,0-5.9,0.3-8,0.7
		c-4,0.9-10.3,2.9-14.1,4.5c-3.8,1.6-9.3,5-12.5,7.6c-3.1,2.6-7.8,7.4-10.4,10.5c-2.6,3.2-5.9,8.8-7.4,12.6
		c-1.5,3.8-3.3,10.2-4,14.2C1,55.4,1.1,62,1.9,66c0.8,4.1,2.7,10.6,4.2,14.6c1.5,3.9,4.9,9.7,7.5,13c2.6,3.3,7.4,8.2,10.6,10.9
		c3.2,2.7,8.9,6.1,12.8,7.6c3.9,1.5,10.4,3.4,14.6,4.1c1.7,0.3,4.1,0.5,6.5,0.5c3.1,0,6-0.3,8.1-0.7c4.1-0.9,10.5-2.8,14.5-4.3
		c3.9-1.5,9.7-4.8,12.9-7.4c3.2-2.6,8-7.4,10.6-10.6c2.6-3.2,6-9,7.7-12.8c1.6-3.8,3.6-10.2,4.3-14.3c0.7-4.1,0.7-10.8,0-15
		c-0.7-4.2-2.6-10.9-4.2-14.8c-1.6-4-5.2-9.8-8-13c-2.8-3.2-7.8-8-11.1-10.7c-3.3-2.7-9.2-6-13.2-7.4c-4-1.4-10.7-3.2-14.9-4
		C63,1.4,60.6,1.3,58.1,1.3z"/>
	<path d="M58.2,101c-2.6,0-5.3-0.1-7.2-0.3c-3-0.3-7.7-1.7-10.4-3.2c-2.6-1.5-6.7-4.2-9.1-6.1c-2.4-1.9-5.6-5.6-7.3-8.2
		c-1.6-2.6-3.9-6.9-5.1-9.7c-1.2-2.8-2.3-7.6-2.5-10.6c-0.2-3-0.1-7.9,0.3-11c0.4-3.1,2-7.8,3.6-10.5c1.6-2.7,4.4-6.8,6.3-9.3
		c1.9-2.5,5.6-5.9,8.2-7.6c2.6-1.7,7.1-4,9.9-5.3c2.9-1.3,7.8-2.4,10.9-2.6c0.6,0,1.3,0,2.1,0c3.1,0,6.7,0.2,9.1,0.6
		c3.1,0.4,7.8,2,10.5,3.5c2.7,1.5,6.7,4.3,9.1,6.3c2.3,2,5.6,5.7,7.3,8.3c1.7,2.6,3.9,7,5,9.8c1.1,2.9,2.1,7.8,2.1,10.8
		c0,3.1-0.3,8-0.7,11c-0.4,3.1-2.1,7.7-3.8,10.3c-1.6,2.5-4.5,6.5-6.4,8.9c-1.9,2.4-5.6,5.6-8.2,7.2c-2.6,1.6-6.9,3.9-9.7,5.1
		c-2.8,1.2-7.6,2.3-10.6,2.5C60.8,100.9,59.5,101,58.2,101z M57.9,17.9c-0.7,0-1.4,0-2,0c-3,0.1-7.7,1.3-10.5,2.5
		c-2.8,1.2-7.2,3.6-9.7,5.2c-2.5,1.6-6.1,4.9-7.9,7.3c-1.8,2.5-4.6,6.6-6.2,9.2c-1.6,2.6-3.1,7-3.5,10c-0.3,3-0.5,7.8-0.3,10.7
		c0.2,2.9,1.3,7.5,2.4,10.2c1.2,2.7,3.4,7,5,9.5c1.6,2.5,4.7,6,7,7.9c2.3,1.9,6.3,4.6,8.9,6c2.6,1.4,7,2.8,9.9,3.1
		c1.8,0.2,4.6,0.3,7.1,0.3c1.3,0,2.6,0,3.5-0.1c2.9-0.2,7.5-1.2,10.2-2.4c2.7-1.2,7-3.4,9.5-5c2.5-1.6,6-4.7,7.8-7
		c1.9-2.3,4.7-6.2,6.3-8.7c1.6-2.5,3.2-6.8,3.6-9.8c0.4-3,0.7-7.8,0.7-10.8c0-3-0.9-7.6-2-10.4c-1.1-2.8-3.3-7.1-4.9-9.6
		c-1.6-2.5-4.8-6.1-7-8c-2.3-1.9-6.2-4.7-8.9-6.1c-2.6-1.4-7.1-2.9-10.1-3.4C64.5,18.1,60.9,17.9,57.9,17.9z"/>
	<path class="st2" d="M9.9,52.9c0.9,0,1.6,0.7,1.6,1.6c0,0.9-0.7,1.6-1.6,1.6c-0.9,0-1.6-0.7-1.6-1.6C8.3,53.7,9,52.9,9.9,52.9
		L9.9,52.9z"/>
	<path class="st2" d="M108.1,52.9c0.9,0,1.6,0.7,1.6,1.6c0,0.9-0.7,1.6-1.6,1.6c-0.9,0-1.6-0.7-1.6-1.6
		C106.5,53.7,107.2,52.9,108.1,52.9L108.1,52.9z"/>
	<path d="M105.6,75.2c0.2,0.1,0.5,0.1,0.7,0.1c0.2,0,0.4,0,0.7,0c0.2,0,0.4,0,0.6-0.1c0.2,0,0.4-0.1,0.5-0.2
		c0.2-0.1,0.3-0.2,0.4-0.3c0.1-0.1,0.3-0.2,0.4-0.4c0.1-0.1,0.2-0.3,0.3-0.4c0,0,0,0,0,0c0.1-0.2,0.1-0.3,0.2-0.5
		c0.1-0.2,0.1-0.4,0.1-0.6c0-0.2,0-0.4,0-0.5c0-0.2-0.1-0.3-0.1-0.5c-0.1-0.2-0.1-0.3-0.2-0.5c-0.1-0.1-0.2-0.3-0.4-0.4
		c-0.1-0.1-0.3-0.3-0.5-0.4c0,0,0,0,0,0c-0.2-0.1-0.4-0.2-0.6-0.3c-0.2-0.1-0.4-0.2-0.7-0.2c-0.2-0.1-0.5-0.1-0.7-0.1
		c-0.2,0-0.4,0-0.7,0c-0.2,0-0.4,0-0.6,0.1c-0.2,0-0.4,0.1-0.5,0.2c-0.2,0.1-0.3,0.2-0.4,0.3c-0.1,0.1-0.3,0.2-0.4,0.4
		c-0.1,0.1-0.2,0.3-0.3,0.4c-0.1,0.2-0.2,0.3-0.2,0.5c-0.1,0.2-0.1,0.4-0.1,0.6c0,0.2,0,0.4,0,0.5c0,0.2,0.1,0.3,0.1,0.5
		c0.1,0.2,0.1,0.3,0.2,0.5c0.1,0.1,0.2,0.3,0.4,0.4c0.1,0.1,0.3,0.3,0.5,0.4c0.2,0.1,0.4,0.2,0.6,0.3
		C105.1,75.1,105.3,75.2,105.6,75.2L105.6,75.2z M105.1,77c-0.4-0.1-0.7-0.2-1-0.4c-0.3-0.1-0.6-0.3-0.9-0.5
		c-0.3-0.2-0.5-0.4-0.7-0.6c-0.2-0.2-0.4-0.5-0.5-0.7c-0.1-0.3-0.3-0.5-0.3-0.8c-0.1-0.3-0.1-0.6-0.2-0.8c0-0.3,0-0.6,0-0.9
		c0-0.3,0.1-0.6,0.2-0.9c0.1-0.3,0.2-0.6,0.3-0.8c0.1-0.3,0.3-0.5,0.4-0.7c0.2-0.2,0.4-0.4,0.6-0.6c0.2-0.2,0.4-0.3,0.7-0.5
		c0.2-0.1,0.5-0.3,0.8-0.3c0.3-0.1,0.6-0.1,0.9-0.2c0.3,0,0.7,0,1,0c0.3,0,0.7,0.1,1.1,0.2c0.4,0.1,0.7,0.2,1,0.4
		c0.3,0.2,0.6,0.3,0.9,0.5c0.3,0.2,0.5,0.4,0.7,0.6c0.2,0.2,0.4,0.5,0.5,0.7c0.1,0.2,0.3,0.5,0.3,0.8c0.1,0.3,0.1,0.5,0.2,0.8
		c0,0.3,0,0.6,0,0.8c0,0.3-0.1,0.6-0.2,0.9c-0.1,0.3-0.2,0.6-0.3,0.8c-0.1,0.3-0.3,0.5-0.4,0.7c-0.2,0.2-0.4,0.4-0.6,0.6
		c-0.2,0.2-0.4,0.4-0.7,0.5l0,0l0,0c-0.2,0.1-0.5,0.3-0.8,0.3c-0.3,0.1-0.6,0.1-0.9,0.2c-0.3,0-0.7,0-1,0
		C105.8,77.1,105.5,77.1,105.1,77L105.1,77z"/>
	<path d="M100.9,75.8c0.1,0.2,0.1,0.3,0.2,0.6l0,0c0.1,0.3,0.2,0.5,0.2,0.6c0.1,0.2,0.2,0.5,0.2,0.7h0c0.1,0.2,0.1,0.4,0.2,0.7
		c0.1,0.3,0.2,0.5,0.2,0.7c0.1,0.2,0.1,0.4,0.2,0.7c0.1,0.3,0.2,0.5,0.2,0.7c0,0.1,0.1,0.2,0.1,0.4c0.1-0.1,0.2-0.1,0.4-0.2
		c0.2-0.1,0.5-0.2,0.7-0.3c0.2-0.1,0.5-0.2,0.8-0.3c0.3-0.1,0.5-0.2,0.8-0.2c0.3-0.1,0.6-0.2,0.8-0.2c0.3-0.1,0.6-0.1,0.8-0.2
		c0.3-0.1,0.5-0.1,0.8-0.1l0,0c0.2,0,0.5-0.1,0.7-0.1c0.1,0,0.3,0.1,0.3,0.2c0,0,0,0.1,0,0.1l0,0l-0.6,1.3c0,0.1-0.1,0.1-0.2,0.1v0
		c-0.2,0-0.5,0.1-0.7,0.1c-0.2,0-0.5,0.1-0.7,0.1c-0.2,0.1-0.5,0.1-0.7,0.2c-0.3,0.1-0.5,0.1-0.7,0.2c-0.2,0.1-0.5,0.2-0.7,0.3
		c-0.2,0.1-0.5,0.2-0.7,0.3c-0.2,0.1-0.4,0.2-0.6,0.3v0c0,0-0.1,0-0.1,0.1l3.3,1.7c0.1,0.1,0.2,0.2,0.1,0.3l-0.5,1.1
		c-0.1,0.1-0.2,0.2-0.3,0.1l-7.8-3.9c-0.1-0.1-0.2-0.2-0.1-0.3l0,0l0.5-1.1c0.1-0.1,0.2-0.2,0.3-0.1l2.9,1.5l0,0
		c-0.1-0.2-0.1-0.4-0.2-0.7c-0.1-0.3-0.2-0.5-0.2-0.7c-0.1-0.3-0.2-0.5-0.2-0.7c-0.1-0.2-0.1-0.4-0.2-0.7c-0.1-0.2-0.2-0.5-0.2-0.6
		c-0.1-0.2-0.1-0.4-0.2-0.6c-0.1-0.2-0.1-0.4-0.2-0.5c0-0.1,0-0.1,0-0.2h0l0.7-1.3c0.1-0.1,0.2-0.2,0.3-0.1
		C100.8,75.7,100.9,75.7,100.9,75.8L100.9,75.8z"/>
	<path d="M95.9,86.6c-0.2,0.2-0.3,0.4-0.4,0.5c-0.1,0.1-0.1,0.1-0.1,0.2l2.3,1.8l0.4-0.5c0.1-0.2,0.2-0.3,0.3-0.5
		c0.1-0.2,0.2-0.3,0.3-0.4c0.1-0.1,0.1-0.3,0.2-0.4c0-0.1,0.1-0.2,0.1-0.4c0-0.1,0-0.2,0-0.3c0-0.1,0-0.2-0.1-0.3
		c0-0.1-0.1-0.2-0.2-0.3c-0.1-0.1-0.2-0.2-0.3-0.3c-0.1-0.1-0.2-0.2-0.3-0.2c-0.1,0-0.2-0.1-0.3-0.1c-0.1,0-0.2,0-0.3,0
		c-0.1,0-0.2,0-0.3,0.1c-0.1,0-0.2,0.1-0.3,0.2c-0.1,0.1-0.2,0.1-0.3,0.2l0,0c-0.1,0.1-0.2,0.2-0.3,0.3C96.1,86.3,96,86.5,95.9,86.6
		L95.9,86.6z M94.6,85.7c0.4-0.5,0.8-0.9,1.2-1.2c0.4-0.3,0.8-0.5,1.2-0.7c0.4-0.1,0.8-0.1,1.3-0.1c0.4,0.1,0.8,0.3,1.2,0.6
		c0.2,0.2,0.4,0.3,0.5,0.5c0.2,0.2,0.3,0.4,0.4,0.6c0.1,0.2,0.2,0.4,0.2,0.6c0,0.2,0,0.4,0,0.7c0,0.2-0.1,0.4-0.1,0.7
		c-0.1,0.2-0.2,0.5-0.3,0.7c-0.1,0.2-0.2,0.5-0.4,0.7c-0.2,0.2-0.3,0.5-0.5,0.7l-0.4,0.6l2.3,1.8c0.1,0.1,0.1,0.2,0,0.4l-0.7,1
		c-0.1,0.1-0.2,0.1-0.4,0L93.4,88c-0.1-0.1-0.1-0.2-0.1-0.3c0.1-0.2,0.2-0.3,0.3-0.5c0.1-0.2,0.2-0.3,0.3-0.5l0,0l0,0
		c0.1-0.2,0.2-0.3,0.4-0.5C94.4,86,94.5,85.8,94.6,85.7C94.6,85.7,94.6,85.7,94.6,85.7L94.6,85.7z"/>
	<path d="M93.9,99.6l-6-6.3c-0.1-0.1-0.1-0.3,0-0.4l0,0l3.8-3.7c0.1-0.1,0.3-0.1,0.4,0l0.7,0.8c0.1,0.1,0.1,0.3,0,0.4L90.1,93
		l1.4,1.5l2.5-2.3c0.1-0.1,0.3-0.1,0.4,0l0.7,0.7c0.1,0.1,0.1,0.3,0,0.4l-2.5,2.3l1.7,1.8l3-2.9c0.1-0.1,0.3-0.1,0.4,0l0.7,0.8
		c0.1,0.1,0.1,0.3,0,0.4l-4.1,3.9C94.2,99.7,94,99.7,93.9,99.6L93.9,99.6z"/>
	<path d="M87.8,102.6c0.1-0.1,0.3-0.2,0.4-0.3c0.1-0.1,0.2-0.2,0.3-0.3l0,0c0.1-0.1,0.2-0.2,0.3-0.3c0.1-0.1,0.1-0.2,0.2-0.3
		c0-0.1,0.1-0.2,0.1-0.3c0-0.1,0-0.2,0-0.3c0-0.1,0-0.2-0.1-0.3c0-0.1-0.1-0.2-0.2-0.4c-0.1-0.1-0.2-0.2-0.3-0.3
		c-0.1-0.1-0.2-0.2-0.3-0.2l0,0l0,0c-0.1-0.1-0.2-0.1-0.3-0.1c-0.1,0-0.2,0-0.3,0c-0.1,0-0.2,0-0.4,0.1c-0.1,0-0.3,0.1-0.4,0.1
		c-0.1,0.1-0.3,0.1-0.5,0.2c-0.2,0.1-0.3,0.2-0.5,0.3l-0.6,0.4l1.6,2.5l0.1,0l0,0v0c0.1,0,0.1-0.1,0.1-0.1c0,0,0.1-0.1,0.2-0.1
		L87.8,102.6L87.8,102.6z M83.5,98l0.9,1.4l0.7-0.5c0.3-0.2,0.5-0.3,0.8-0.5c0.3-0.1,0.5-0.2,0.7-0.3c0.2-0.1,0.5-0.2,0.7-0.2
		c0.2,0,0.5-0.1,0.7-0.1c0.2,0,0.4,0,0.6,0.1l0,0c0.2,0.1,0.4,0.1,0.6,0.2l0,0c0.2,0.1,0.4,0.2,0.5,0.4c0.2,0.2,0.3,0.4,0.5,0.6
		c0.3,0.4,0.4,0.8,0.5,1.3c0.1,0.4,0,0.9-0.2,1.3l0,0c-0.2,0.4-0.4,0.8-0.8,1.2c-0.3,0.4-0.8,0.7-1.3,1.1c-0.1,0-0.1,0.1-0.2,0.2
		l0,0l0,0c-0.1,0-0.2,0.1-0.3,0.2c-0.1,0.1-0.2,0.1-0.3,0.2c-0.1,0-0.2,0.1-0.3,0.2c-0.1,0-0.2,0.1-0.3,0.1
		c-0.1,0.1-0.2,0.1-0.3,0.1c-0.1,0-0.2,0.1-0.3,0.1c-0.1,0-0.2,0.1-0.3,0.1c-0.1,0-0.2,0-0.3-0.1l0,0l-4.7-7.2
		c-0.1-0.1,0-0.3,0.1-0.4l0,0l4.5-3c0.1-0.1,0.3,0,0.4,0.1l0.6,0.9c0.1,0.1,0,0.3-0.1,0.4L83.5,98L83.5,98z"/>
	<path d="M80.2,104.3c-0.2-0.2-0.4-0.4-0.5-0.5c-0.3-0.3-0.5-0.5-0.8-0.8c-0.3-0.3-0.5-0.5-0.8-0.7c-0.1-0.1-0.2-0.2-0.4-0.3
		c0,0.2,0,0.3,0,0.5c0,0.3,0,0.7,0,1.1c0,0.4,0,0.7,0.1,1.1c0,0.3,0,0.5,0.1,0.8L80.2,104.3L80.2,104.3z M82.8,107
		c-0.1-0.1-0.3-0.3-0.4-0.4c-0.1-0.1-0.3-0.3-0.4-0.4c-0.1-0.1-0.3-0.3-0.4-0.4c-0.1-0.1-0.2-0.2-0.3-0.3l-3.3,1.5l0.2,2.2
		c0,0.1-0.1,0.2-0.2,0.3l-1.1,0.5c-0.1,0.1-0.3,0-0.3-0.1c0,0,0-0.1,0-0.1h0c0-0.5-0.1-0.9-0.1-1.4c0-0.4-0.1-0.9-0.1-1.3
		c0-0.4-0.1-0.8-0.1-1.2c0-0.4,0-0.8-0.1-1.2c0-0.4,0-0.7,0-1.1c0-0.4,0-0.7,0-1.1v0c0-0.3,0-0.7,0-1c0-0.4,0-0.7,0-1.1
		c0-0.1,0.1-0.2,0.2-0.2l1-0.5c0.1,0,0.2,0,0.3,0l0,0c0.3,0.2,0.5,0.4,0.8,0.7c0.3,0.2,0.5,0.5,0.8,0.7c0.3,0.2,0.5,0.5,0.8,0.7
		c0.3,0.2,0.5,0.5,0.8,0.8c0.3,0.3,0.6,0.5,0.8,0.8c0.3,0.3,0.6,0.6,0.9,0.9c0.3,0.3,0.6,0.6,0.9,0.9c0.3,0.3,0.7,0.7,1,1
		c0.1,0.1,0.1,0.3,0,0.4c0,0,0,0-0.1,0l0,0l-1.2,0.6C83,107.1,82.9,107.1,82.8,107L82.8,107L82.8,107z"/>
	<path d="M74,101.4l0.3,1c0,0.1,0,0.3-0.2,0.3l-2.4,0.6l1.9,7.2c0,0.1,0,0.3-0.2,0.3l-1.2,0.3c-0.1,0-0.3,0-0.3-0.2l-1.9-7.2
		l-2.4,0.6c-0.1,0-0.3,0-0.3-0.2l-0.3-1c0-0.1,0-0.3,0.2-0.3l0,0l6.5-1.7C73.9,101.1,74,101.2,74,101.4L74,101.4z"/>
	<path d="M60.7,103.5L60.7,103.5l1.2,0c0.1,0,0.3,0.1,0.3,0.3l-0.1,8.7c0,0.1-0.1,0.3-0.3,0.3l-1.2,0c-0.1,0-0.3-0.1-0.3-0.3v0
		l0.1-8.7C60.5,103.7,60.6,103.5,60.7,103.5L60.7,103.5z M55,106.6L55,106.6L55,106.6L55,106.6z M59.6,109.8c0,0.2,0,0.5-0.1,0.7v0
		l0,0c0,0.2-0.1,0.4-0.2,0.6c-0.1,0.2-0.2,0.4-0.4,0.5c-0.1,0.2-0.3,0.3-0.5,0.4c-0.2,0.1-0.4,0.2-0.6,0.3c-0.2,0.1-0.4,0.2-0.7,0.2
		c-0.2,0.1-0.5,0.1-0.8,0.1c-0.3,0-0.6,0-0.9,0c-0.2,0-0.4,0-0.6,0c-0.2,0-0.4,0-0.6,0l0,0c-0.2,0-0.4,0-0.6-0.1
		c-0.2,0-0.4-0.1-0.6-0.1c-0.1,0-0.2-0.1-0.2-0.3v0l0.1-8.6c0-0.1,0.1-0.3,0.3-0.3h0l1.2,0c0.1,0,0.3,0.1,0.3,0.3l0,2.9
		c0.1,0,0.1,0,0.2,0h0c0.1,0,0.2,0,0.2,0c0.1,0,0.2,0,0.2,0l0,0h0c0,0,0,0,0,0c1.3,0,2.3,0.3,3,0.8C59.3,108,59.6,108.7,59.6,109.8
		L59.6,109.8L59.6,109.8C59.6,109.8,59.6,109.8,59.6,109.8L59.6,109.8z M57.8,109.8c0-0.2,0-0.3,0-0.4c0-0.1-0.1-0.2-0.1-0.3l0,0
		c-0.1-0.1-0.1-0.2-0.2-0.3c-0.1-0.1-0.2-0.1-0.3-0.2l0,0c-0.1-0.1-0.2-0.1-0.3-0.2l0,0c-0.1,0-0.3-0.1-0.4-0.1l0,0
		c-0.2,0-0.3,0-0.5-0.1c-0.2,0-0.3,0-0.5,0l-0.5,0c-0.1,0-0.1,0-0.2,0l0,3c0,0,0.1,0,0.1,0c0.1,0,0.2,0,0.3,0l0.5,0
		c0.1,0,0.3,0,0.4,0c0.1,0,0.3,0,0.4-0.1l0,0c0.1,0,0.3-0.1,0.4-0.1l0,0c0.1,0,0.2-0.1,0.3-0.1c0.1-0.1,0.2-0.1,0.3-0.2
		c0.1-0.1,0.1-0.2,0.2-0.2c0.1-0.1,0.1-0.2,0.1-0.3C57.8,110.1,57.8,109.9,57.8,109.8L57.8,109.8z"/>
	<path d="M50.4,102.7L50.4,102.7l1.2,0.3c0.1,0,0.2,0.2,0.2,0.3l-2.1,8.5c0,0.1-0.2,0.2-0.3,0.2l-1.2-0.3c-0.1,0-0.2-0.2-0.2-0.3
		l0,0l0.9-3.6l-3.6-0.9l-0.9,3.7c0,0.1-0.2,0.2-0.3,0.2l-1.2-0.3c-0.1,0-0.2-0.2-0.2-0.3l0,0l2.1-8.5c0-0.1,0.2-0.2,0.3-0.2l0,0
		l1.2,0.3c0.1,0,0.2,0.2,0.2,0.3l-0.8,3.3l3.6,0.9l0.8-3.3C50.1,102.8,50.2,102.7,50.4,102.7L50.4,102.7z"/>
	<path d="M32.7,105.7L32.7,105.7l3.7-7.9c0.1-0.1,0.2-0.2,0.3-0.1l1.1,0.5c0.1,0.1,0.2,0.2,0.1,0.3l-2.4,5c0.2-0.2,0.5-0.3,0.8-0.5
		c0.3-0.2,0.6-0.4,0.9-0.5c0.3-0.2,0.6-0.4,1-0.5c0.3-0.2,0.6-0.3,1-0.5c0.3-0.2,0.6-0.3,1-0.5c0.3-0.2,0.6-0.3,0.9-0.4l0,0
		c0.3-0.1,0.6-0.3,0.9-0.4c0.1,0,0.2,0,0.2,0l0.9,0.4c0.1,0.1,0.2,0.2,0.1,0.3l-3.7,7.9c-0.1,0.1-0.2,0.2-0.3,0.1l-1.1-0.5
		c-0.1-0.1-0.2-0.2-0.1-0.3l0,0l2.6-5.5c-0.1,0.1-0.3,0.1-0.4,0.2c-0.2,0.1-0.4,0.2-0.6,0.3c-0.2,0.1-0.4,0.2-0.6,0.3
		c-0.2,0.1-0.4,0.2-0.7,0.4c-0.2,0.1-0.4,0.2-0.7,0.4c-0.3,0.1-0.5,0.3-0.7,0.4c-0.2,0.1-0.4,0.3-0.6,0.4c-0.2,0.1-0.4,0.2-0.6,0.4
		c-0.2,0.1-0.4,0.3-0.6,0.4l0,0c-0.2,0.1-0.4,0.3-0.5,0.4c-0.1,0.1-0.3,0.2-0.5,0.3c-0.1,0.1-0.2,0.1-0.3,0l-0.9-0.4
		C32.7,105.9,32.6,105.8,32.7,105.7L32.7,105.7z"/>
	<path d="M31.7,96c-0.2-0.1-0.4-0.3-0.6-0.4c-0.1-0.1-0.2-0.1-0.2-0.1l-1.7,2.4l0.5,0.4c0.2,0.1,0.3,0.2,0.5,0.3
		c0.2,0.1,0.3,0.2,0.5,0.2c0.1,0.1,0.3,0.1,0.4,0.2c0.1,0,0.2,0.1,0.4,0.1h0l0,0c0.1,0,0.2,0,0.3,0c0.1,0,0.2,0,0.3-0.1l0,0
		c0.1,0,0.2-0.1,0.3-0.2c0.1-0.1,0.2-0.2,0.3-0.3c0.1-0.1,0.2-0.2,0.2-0.4c0-0.1,0.1-0.2,0.1-0.3c0-0.1,0-0.2,0-0.3
		c0-0.1,0-0.2-0.1-0.3c0-0.1-0.1-0.2-0.2-0.3c-0.1-0.1-0.2-0.2-0.2-0.3l0,0l0,0c-0.1-0.1-0.2-0.2-0.3-0.3C31.9,96.1,31.8,96,31.7,96
		L31.7,96z M32.5,94.6c0.5,0.4,0.9,0.7,1.3,1.1c0.3,0.4,0.6,0.8,0.7,1.2c0.1,0.4,0.2,0.8,0.1,1.3c-0.1,0.4-0.3,0.8-0.5,1.2
		c-0.2,0.2-0.3,0.4-0.5,0.6c-0.2,0.2-0.4,0.3-0.6,0.4l0,0c-0.2,0.1-0.4,0.2-0.6,0.2c-0.2,0-0.4,0.1-0.7,0.1l0,0
		c-0.2,0-0.4,0-0.7-0.1c-0.2-0.1-0.5-0.1-0.7-0.2c-0.2-0.1-0.5-0.2-0.7-0.4c-0.2-0.1-0.5-0.3-0.8-0.5l-0.6-0.4l-1.7,2.4
		c-0.1,0.1-0.2,0.1-0.4,0.1l-1-0.7c-0.1-0.1-0.1-0.2-0.1-0.4l0,0l4.9-7c0.1-0.1,0.2-0.1,0.3-0.1l0,0c0.2,0.1,0.3,0.1,0.5,0.2
		c0.2,0.1,0.4,0.2,0.5,0.3c0.2,0.1,0.4,0.2,0.5,0.3C32.2,94.4,32.4,94.5,32.5,94.6L32.5,94.6z"/>
	<path d="M18.7,94.2L18.7,94.2l6.2-6.1c0.1-0.1,0.3-0.1,0.4,0l3.7,3.8c0.1,0.1,0.1,0.3,0,0.4L28.2,93c-0.1,0.1-0.3,0.1-0.4,0
		l-2.7-2.7l-1.5,1.5l2.4,2.4c0.1,0.1,0.1,0.3,0,0.4l-0.7,0.7c-0.1,0.1-0.3,0.1-0.4,0l-2.4-2.4l-1.8,1.8l2.9,3c0.1,0.1,0.1,0.3,0,0.4
		L23,98.6c-0.1,0.1-0.3,0.1-0.4,0l-3.9-4C18.6,94.5,18.6,94.3,18.7,94.2L18.7,94.2z"/>
	<path d="M24.1,87.3l-0.9,0.6c-0.1,0.1-0.3,0.1-0.4-0.1l-1.4-2l-6,4.3c-0.1,0.1-0.3,0.1-0.4-0.1l-0.7-1c-0.1-0.1-0.1-0.3,0.1-0.4
		l0,0l6-4.3l-1.4-2C19,82.2,19,82.1,19.1,82l0,0l0.9-0.6c0.1-0.1,0.3-0.1,0.4,0.1l3.9,5.5C24.3,87,24.3,87.2,24.1,87.3L24.1,87.3z"
		/>
	<path d="M14.6,82c0.2-0.2,0.3-0.4,0.5-0.6c0.3-0.3,0.5-0.6,0.7-0.8c0.2-0.3,0.5-0.5,0.7-0.8c0.1-0.1,0.2-0.2,0.3-0.4
		c-0.2,0-0.3,0-0.5,0c-0.4,0-0.7,0.1-1.1,0.1c-0.4,0-0.8,0.1-1.1,0.1c-0.2,0-0.5,0.1-0.8,0.1L14.6,82L14.6,82z M12.1,84.8
		c0.1-0.1,0.2-0.3,0.4-0.4c0.2-0.2,0.3-0.3,0.4-0.4c0.1-0.1,0.3-0.3,0.4-0.4c0.1-0.1,0.2-0.2,0.3-0.3L11.9,80l-2.2,0.3
		c-0.1,0-0.2,0-0.3-0.1L8.9,79c-0.1-0.1,0-0.3,0.1-0.3c0,0,0.1,0,0.1,0c0.5-0.1,0.9-0.1,1.4-0.2c0.4-0.1,0.9-0.1,1.3-0.2
		c0.5-0.1,0.9-0.1,1.2-0.1c0.4,0,0.8-0.1,1.2-0.1c0.4,0,0.7-0.1,1.1-0.1c0.4,0,0.7-0.1,1.1-0.1c0.3,0,0.7,0,1-0.1c0.3,0,0.7,0,1.1,0
		c0.1,0,0.2,0.1,0.2,0.1l0,0l0.5,1c0,0.1,0,0.2,0,0.3c-0.2,0.3-0.4,0.6-0.6,0.8c-0.2,0.3-0.4,0.5-0.7,0.8c-0.2,0.3-0.5,0.6-0.7,0.8
		c-0.2,0.3-0.5,0.6-0.7,0.9c-0.2,0.3-0.5,0.6-0.8,0.9c-0.3,0.3-0.5,0.6-0.8,0.9c-0.3,0.3-0.6,0.6-0.9,1c-0.4,0.4-0.7,0.8-0.9,1
		c-0.1,0.1-0.3,0.1-0.4,0c0,0,0,0-0.1-0.1l0,0L12,85.1C12,85,12,84.8,12.1,84.8L12.1,84.8z"/>
	<path d="M16.8,74.9c-0.2-0.1-0.4-0.2-0.5-0.3c-0.2-0.1-0.4-0.2-0.6-0.3c-0.2-0.1-0.4-0.2-0.6-0.3c-0.2-0.1-0.4-0.2-0.7-0.3
		c-0.2-0.1-0.4-0.2-0.7-0.4c-0.2-0.1-0.5-0.2-0.7-0.4c-0.3-0.1-0.5-0.3-0.6-0.3L12,72.4c0,0.1-0.1,0.2-0.1,0.4
		c-0.1,0.2-0.2,0.5-0.3,0.7c-0.1,0.2-0.2,0.5-0.4,0.7c-0.1,0.3-0.3,0.5-0.4,0.7c-0.1,0.2-0.3,0.5-0.5,0.7l0,0
		c-0.2,0.2-0.3,0.5-0.5,0.7c-0.2,0.2-0.3,0.4-0.5,0.6c-0.2,0.2-0.3,0.4-0.5,0.6c-0.1,0.1-0.3,0.1-0.4,0c0,0-0.1-0.1-0.1-0.1h0
		L8,76.1c0-0.1,0-0.2,0.1-0.3c0.1-0.2,0.3-0.3,0.4-0.5c0.2-0.2,0.3-0.4,0.4-0.6c0.1-0.2,0.3-0.4,0.4-0.6c0.1-0.2,0.3-0.4,0.4-0.7
		c0.1-0.2,0.2-0.4,0.3-0.7l0,0h0c0.1-0.2,0.2-0.4,0.3-0.7l0,0h0c0.1-0.2,0.2-0.4,0.2-0.6c0-0.1,0-0.1,0.1-0.2l-3.5,1
		c-0.1,0-0.3,0-0.3-0.2L6.5,71c0-0.1,0-0.3,0.2-0.3l0,0l8.3-2.5c0.1,0,0.3,0,0.3,0.2l0.3,1.2c0,0.1,0,0.3-0.2,0.3l-3.1,0.9l0,0
		c0.2,0.1,0.4,0.2,0.6,0.3c0.2,0.1,0.4,0.2,0.6,0.4c0.2,0.1,0.4,0.2,0.6,0.3c0.2,0.1,0.4,0.2,0.6,0.3c0.2,0.1,0.4,0.2,0.6,0.3
		c0.2,0.1,0.4,0.2,0.5,0.3c0.2,0.1,0.3,0.2,0.5,0.2c0.1,0,0.1,0.1,0.1,0.2l0,0l0.4,1.4c0,0.1,0,0.3-0.2,0.3
		C16.9,75,16.8,74.9,16.8,74.9L16.8,74.9z"/>
	<path d="M108.9,38.4l-7.8,3.9c-0.1,0.1-0.3,0-0.3-0.1l-0.5-1.1c-0.1-0.1,0-0.3,0.1-0.3l0,0l6.6-3.3l-1.6-3.3l-6.6,3.3
		c-0.1,0.1-0.3,0-0.3-0.1l-0.5-1.1c-0.1-0.1,0-0.3,0.1-0.3l0,0l7.8-3.8c0.1-0.1,0.3,0,0.3,0.1l2.9,6
		C109.1,38.2,109.1,38.3,108.9,38.4L108.9,38.4z"/>
	<path d="M98.5,30.6c0.1-0.2,0.3-0.4,0.4-0.7c0.2-0.3,0.4-0.6,0.6-0.9c0,0,0,0,0,0c0.2-0.3,0.4-0.6,0.5-0.9c0.1-0.1,0.2-0.3,0.2-0.4
		c-0.2,0-0.3,0.1-0.5,0.1c-0.4,0.1-0.7,0.2-1,0.3c-0.4,0.1-0.7,0.2-1.1,0.3c-0.2,0.1-0.5,0.1-0.7,0.2L98.5,30.6L98.5,30.6z
		 M96.4,33.8c0.3-0.4,0.6-0.9,0.9-1.3c0.1-0.2,0.2-0.3,0.3-0.5l-2.2-2.9l-2.1,0.7c-0.1,0-0.2,0-0.3-0.1l-0.8-1
		c-0.1-0.1-0.1-0.3,0-0.4c0,0,0.1,0,0.1,0v0c0.8-0.2,1.6-0.5,2.4-0.7c0.8-0.2,1.6-0.5,2.5-0.7c0.4-0.1,0.7-0.2,1.1-0.3
		c0.4-0.1,0.7-0.2,1-0.3c0.3-0.1,0.7-0.2,1-0.2c0.4-0.1,0.7-0.2,1-0.2c0.1,0,0.2,0,0.3,0.1l0.7,0.9c0.1,0.1,0.1,0.2,0,0.3l0,0
		c-0.2,0.3-0.3,0.6-0.5,0.9c-0.2,0.3-0.3,0.6-0.5,0.9c-0.2,0.3-0.4,0.6-0.5,0.9c-0.2,0.3-0.4,0.7-0.6,1c-0.2,0.3-0.4,0.6-0.6,1
		c-0.2,0.3-0.4,0.7-0.7,1c-0.2,0.3-0.4,0.7-0.7,1.1c-0.3,0.4-0.5,0.8-0.8,1.2c-0.1,0.1-0.2,0.2-0.4,0.1c0,0-0.1,0-0.1-0.1l-0.8-1.1
		C96.4,34,96.4,33.9,96.4,33.8L96.4,33.8L96.4,33.8z"/>
	<path d="M97.7,21.5L97.7,21.5L97.7,21.5c-0.2,0-0.4,0-0.6,0.1l0,0v0c-0.2,0-0.4,0-0.7,0c-0.2,0-0.5,0-0.7,0c-0.2,0-0.5,0-0.8,0
		c-0.2,0-0.5,0-0.8,0c-0.4,0-0.6,0-0.8,0c-0.2,0-0.5,0-0.7,0c-0.1,0-0.2,0-0.4,0c0,0.1,0,0.3,0.1,0.4c0,0.2,0.1,0.5,0.1,0.8
		c0,0.3,0,0.6,0.1,0.8c0,0.3,0,0.6,0,0.9c0,0.3,0,0.6,0,0.9c0,0.3,0,0.6-0.1,0.8c0,0.3-0.1,0.5-0.1,0.8c0,0.3-0.1,0.5-0.1,0.7
		c0,0.1-0.2,0.2-0.3,0.2c0,0-0.1,0-0.1-0.1l0,0l-1.1-1c-0.1-0.1-0.1-0.2-0.1-0.2c0-0.2,0.1-0.4,0.1-0.7c0-0.2,0-0.5,0.1-0.7
		c0-0.3,0-0.5,0-0.8c0-0.2,0-0.5,0-0.8c0-0.3,0-0.5,0-0.7c0-0.2,0-0.5-0.1-0.7c0-0.2-0.1-0.5-0.1-0.7c0-0.1,0-0.1,0-0.2l-2.5,2.7
		c-0.1,0.1-0.3,0.1-0.4,0l-0.9-0.8c-0.1-0.1-0.1-0.3,0-0.4l0,0l5.9-6.4c0.1-0.1,0.3-0.1,0.4,0l0.9,0.8c0.1,0.1,0.1,0.3,0,0.4
		l-2.2,2.4l0,0c0.2,0,0.4,0,0.7,0c0.3,0,0.5,0,0.7,0c0.2,0,0.5,0,0.7,0c0.2,0,0.5,0,0.7,0c0.2,0,0.4,0,0.7,0l0,0c0.2,0,0.4,0,0.6,0
		c0.2,0,0.4,0,0.5-0.1c0.1,0,0.1,0,0.2,0.1l0,0l1.1,1c0.1,0.1,0.1,0.3,0,0.4C97.8,21.4,97.8,21.5,97.7,21.5L97.7,21.5z"/>
	<path d="M76.3,16.7L76.3,16.7L80.5,9c0.1-0.1,0.2-0.2,0.3-0.1l1.1,0.6C82,9.6,82.1,9.7,82,9.9l-3.6,6.5l2.4,1.3l3.6-6.5
		c0.1-0.1,0.2-0.2,0.3-0.1l1.1,0.6c0.1,0.1,0.2,0.2,0.1,0.3l-3.6,6.5l2.4,1.3l3.6-6.5c0.1-0.1,0.2-0.2,0.3-0.1l1.1,0.6
		c0.1,0.1,0.2,0.2,0.1,0.3l-4.2,7.6C85.5,22,85.4,22,85.3,22L76.4,17C76.2,16.9,76.2,16.8,76.3,16.7L76.3,16.7z"/>
	<path d="M69,4.7c-0.3-0.1-0.5-0.1-0.8-0.2C68,4.3,67.8,4.2,67.6,4c0,0,0,0,0,0c-0.2-0.2-0.3-0.4-0.3-0.6c-0.1-0.2-0.1-0.5-0.1-0.8
		c0-0.1,0-0.7,0.1-0.8c0,0,0.4-0.1,0.4-0.1v0l0.7,0.1c0.1,0,0.2,0.5,0.2,0.6l0,0c0.1,1.1,1.2,1.2,1.6,0.3c0.1-0.1,0.3-0.5,0.4-0.4
		l0,0l0.9,0.2c0.1,0.1-0.1,0.6-0.1,0.7h0C71.3,3.6,71.2,3.8,71,4c-0.1,0.2-0.3,0.4-0.5,0.5c-0.2,0.1-0.4,0.2-0.7,0.2l0,0
		C69.5,4.8,69.3,4.8,69,4.7L69,4.7z"/>
	<path d="M63.6,13.8L63.6,13.8l1.5-8.6c0-0.1,0.2-0.2,0.3-0.2l0,0l1.2,0.2c0.1,0,0.2,0.2,0.2,0.3l-1,5.5c0.2-0.2,0.4-0.4,0.6-0.7
		c0,0,0,0,0,0c0.2-0.2,0.5-0.5,0.7-0.7C67.4,9.3,67.7,9,68,8.8c0.3-0.3,0.5-0.5,0.8-0.7c0.3-0.2,0.5-0.5,0.8-0.7
		c0.3-0.2,0.5-0.5,0.8-0.7c0.3-0.2,0.5-0.4,0.7-0.6c0.1,0,0.1-0.1,0.2,0l0.9,0.2c0.1,0,0.2,0.2,0.2,0.3l-1.5,8.6
		c0,0.1-0.2,0.2-0.3,0.2l-1.2-0.2c-0.1,0-0.2-0.2-0.2-0.3l0,0l1.1-6c-0.1,0.1-0.2,0.2-0.4,0.3c-0.2,0.2-0.3,0.3-0.5,0.5
		c-0.2,0.1-0.3,0.3-0.5,0.5c-0.2,0.2-0.4,0.3-0.5,0.5c-0.2,0.2-0.4,0.4-0.5,0.5c-0.2,0.2-0.4,0.4-0.5,0.5c-0.2,0.2-0.3,0.4-0.5,0.5
		c-0.2,0.2-0.4,0.4-0.5,0.5c-0.2,0.2-0.3,0.3-0.5,0.5c-0.1,0.1-0.2,0.3-0.4,0.5l0,0c-0.1,0.1-0.2,0.3-0.4,0.4
		c-0.1,0.1-0.2,0.1-0.2,0.1l0,0l-1-0.2C63.6,14,63.5,13.9,63.6,13.8L63.6,13.8z"/>
	<path d="M60.1,4.6l1.2,0c0.1,0,0.3,0.1,0.3,0.3l-0.1,8.7c0,0.1-0.1,0.3-0.3,0.3l-1.2,0c-0.1,0-0.3-0.1-0.3-0.3l0.1-8.7
		C59.9,4.7,60,4.6,60.1,4.6L60.1,4.6z"/>
	<path d="M59.1,10.7L59.1,10.7L59.1,10.7L59.1,10.7C59.1,10.7,59.1,10.7,59.1,10.7c0,0.3,0,0.5,0,0.7c0,0.2-0.1,0.4-0.2,0.6
		c-0.1,0.2-0.2,0.4-0.3,0.6c-0.1,0.2-0.3,0.3-0.4,0.5c-0.2,0.1-0.4,0.3-0.6,0.4c-0.2,0.1-0.4,0.2-0.7,0.3C56.5,13.9,56,14,55.5,14
		c-0.5,0-0.9,0.1-1.4,0.1c-0.2,0-0.4,0-0.6,0c-0.2,0-0.4,0-0.6-0.1c-0.1,0-0.2-0.1-0.2-0.3l-0.6-8.6c0-0.1,0.1-0.3,0.2-0.3l1.2-0.1
		c0.1,0,0.3,0.1,0.3,0.2l0.2,2.9c0.1,0,0.1,0,0.2,0c0.2,0,0.3,0,0.5,0l0,0h0v0h0c0,0,0,0,0,0c1.3-0.1,2.4,0.1,3.1,0.6
		C58.6,8.9,59.1,9.7,59.1,10.7L59.1,10.7L59.1,10.7z M57.3,10.8c0-0.4-0.2-0.7-0.4-1c-0.2-0.2-0.6-0.4-1-0.4c-0.3,0-0.6,0-1,0
		c-0.2,0-0.5,0-0.7,0.1l0.2,3c0.3,0,0.5,0,0.8,0c0.3,0,0.7-0.1,1-0.1c0.4-0.1,0.7-0.3,0.9-0.5C57.3,11.5,57.4,11.2,57.3,10.8
		L57.3,10.8z"/>
	<path d="M46.8,6L48,5.7c0.1,0,0.3,0,0.3,0.2l2.3,8.4c0,0.1,0,0.3-0.2,0.3l-1.2,0.3c-0.1,0-0.3,0-0.3-0.2l-1-3.6l-3.6,1l1,3.6
		c0,0.1,0,0.3-0.2,0.3l-1.2,0.3c-0.1,0-0.3,0-0.3-0.2l-2.3-8.4c0-0.1,0-0.3,0.2-0.3l1.2-0.3c0.1,0,0.3,0,0.3,0.2l0.9,3.3l3.6-1
		l-0.9-3.3C46.6,6.2,46.7,6,46.8,6L46.8,6z"/>
	<path d="M33.5,16L33.5,16L33.5,16l-1-0.4l0,0c-0.2-0.1-0.4-0.2-0.6-0.2c-0.2-0.1-0.4-0.2-0.7-0.3l0,0c-0.2-0.1-0.4-0.2-0.7-0.3
		c-0.2-0.1-0.4-0.2-0.6-0.3l0,0c-0.2-0.1-0.4-0.2-0.6-0.2c-0.2-0.1-0.4-0.2-0.5-0.2c-0.1-0.1-0.2-0.2-0.1-0.3c0-0.1,0.1-0.1,0.1-0.1
		L30,13c0.1,0,0.2,0,0.2,0c0.1,0.1,0.3,0.1,0.4,0.2c0.2,0.1,0.4,0.2,0.5,0.2c0.2,0.1,0.4,0.2,0.6,0.2c0.2,0.1,0.4,0.2,0.6,0.2
		l0.6,0.3l0.6,0.3c0.2,0.1,0.4,0.1,0.6,0.2l-1.5-2.8c-0.1-0.1,0-0.3,0.1-0.3l0,0l1-0.6c0.1-0.1,0.3,0,0.3,0.1l1.5,2.8l0.1-0.6
		c0.1-0.3,0.1-0.5,0.1-0.7c0.1-0.3,0.1-0.5,0.1-0.7l0.1-0.7l0.1-0.6l0,0h0c0-0.2,0.1-0.4,0.1-0.6c0-0.2,0.1-0.4,0.1-0.5
		c0-0.1,0.1-0.2,0.1-0.2l1.2-0.7c0.1-0.1,0.3,0,0.3,0.1c0,0.1,0,0.1,0,0.2l0,0c0,0.2-0.1,0.4-0.1,0.6c0,0.1-0.1,0.4-0.1,0.6
		c0,0.2-0.1,0.5-0.1,0.7c-0.1,0.3-0.1,0.5-0.1,0.7c-0.1,0.3-0.1,0.5-0.1,0.7c0,0.1-0.1,0.3-0.1,0.7l-0.2,1c0.1,0,0.3,0.1,0.4,0.1
		c0.2,0.1,0.5,0.1,0.7,0.2c0.2,0.1,0.5,0.2,0.7,0.3c0.2,0.1,0.5,0.2,0.7,0.3c0.2,0.1,0.5,0.2,0.7,0.3c0.2,0.1,0.5,0.2,0.7,0.3
		c0.2,0.1,0.4,0.2,0.6,0.4c0.2,0.1,0.4,0.2,0.6,0.4c0.1,0.1,0.2,0.2,0.1,0.4c0,0-0.1,0.1-0.1,0.1l0,0l-1.2,0.7c-0.1,0-0.2,0-0.3,0
		l0,0c-0.2-0.1-0.4-0.2-0.6-0.3c-0.2-0.1-0.4-0.2-0.6-0.3c-0.2-0.1-0.4-0.2-0.6-0.3c-0.2-0.1-0.4-0.2-0.6-0.3
		c-0.2-0.1-0.4-0.2-0.6-0.2c-0.2-0.1-0.4-0.1-0.6-0.2c-0.2-0.1-0.4-0.1-0.6-0.2l1.7,3.1c0.1,0.1,0,0.3-0.1,0.3l-1,0.6
		c-0.1,0.1-0.3,0-0.3-0.1l-1.7-3.2c-0.1,0.2-0.1,0.4-0.2,0.6c-0.1,0.2-0.1,0.4-0.2,0.6c-0.1,0.2-0.1,0.4-0.1,0.7
		c0,0.2-0.1,0.5-0.1,0.7c0,0.2-0.1,0.5-0.1,0.7c0,0.2-0.1,0.5-0.1,0.7c0,0.2,0,0.5,0,0.7c0,0.1-0.1,0.2-0.1,0.2l0,0L33,21.9
		c-0.1,0.1-0.3,0-0.3-0.1c0,0,0-0.1,0-0.1c0-0.2,0-0.5,0-0.7c0-0.3,0-0.5,0-0.7c0-0.3,0.1-0.5,0.1-0.8c0-0.2,0.1-0.5,0.1-0.8l0,0
		c0-0.3,0.1-0.5,0.1-0.7c0.1-0.2,0.1-0.5,0.2-0.7c0.1-0.3,0.1-0.5,0.2-0.7C33.4,16.3,33.5,16.2,33.5,16L33.5,16z"/>
	<path d="M26.3,27.4l-5.8-6.5c-0.1-0.1-0.1-0.3,0-0.4l0,0l0.9-0.8c0.1-0.1,0.3-0.1,0.4,0l3.7,4.2c0-0.3-0.1-0.6-0.1-0.9
		c0-0.4-0.1-0.7-0.1-1.1c0-0.3-0.1-0.7-0.1-1.1c0-0.4-0.1-0.7-0.1-1.1c0-0.4,0-0.7-0.1-1.1c0-0.4,0-0.7,0-1c0-0.3,0-0.6,0-0.9
		c0-0.1,0-0.1,0.1-0.2h0l0.7-0.6c0.1-0.1,0.3-0.1,0.4,0l5.8,6.5c0.1,0.1,0.1,0.3,0,0.4L31,23.6c-0.1,0.1-0.3,0.1-0.4,0l-4-4.6
		c0,0.2,0,0.3,0,0.5c0,0.2,0,0.4,0,0.7c0,0.2,0,0.5,0.1,0.7c0,0.2,0,0.5,0.1,0.8c0,0.3,0.1,0.5,0.1,0.8l0,0c0,0.2,0.1,0.5,0.1,0.8
		c0,0.2,0.1,0.5,0.1,0.7c0,0.3,0.1,0.5,0.1,0.7c0,0.2,0.1,0.4,0.1,0.7c0,0.2,0.1,0.4,0.1,0.6c0,0.2,0.1,0.4,0.1,0.6
		c0,0.1,0,0.2-0.1,0.2l0,0l-0.8,0.7C26.6,27.5,26.4,27.5,26.3,27.4L26.3,27.4z"/>
	<path d="M16.7,25l0.7-1c0.1-0.1,0.2-0.1,0.4-0.1l7,5.1c0.1,0.1,0.1,0.2,0.1,0.4l-0.7,1c-0.1,0.1-0.2,0.1-0.4,0.1l-3-2.2l-2.2,3
		l3,2.2c0.1,0.1,0.1,0.2,0.1,0.4l-0.7,1c-0.1,0.1-0.2,0.1-0.4,0.1l-7-5.1c-0.1-0.1-0.1-0.2-0.1-0.4l0.7-1c0.1-0.1,0.2-0.1,0.4-0.1
		l2.7,2l2.2-3l-2.7-2C16.7,25.3,16.7,25.2,16.7,25L16.7,25z"/>
	<path d="M12.1,32.5c0.1,0.2,0.2,0.4,0.2,0.6c0.1,0.1,0.1,0.3,0.3,0.6l0,0c0.1,0.2,0.2,0.4,0.3,0.7c0.1,0.2,0.2,0.5,0.3,0.7
		c0.1,0.3,0.2,0.5,0.3,0.7c0.1,0.2,0.1,0.4,0.3,0.7c0.1,0.3,0.2,0.5,0.2,0.7l0,0c0,0.1,0.1,0.2,0.1,0.3c0.1-0.1,0.2-0.1,0.4-0.2
		c0.2-0.1,0.5-0.2,0.7-0.3l0,0c0.3-0.1,0.5-0.2,0.8-0.3c0.3-0.1,0.5-0.2,0.8-0.3c0,0,0,0,0,0c0.3-0.1,0.5-0.2,0.8-0.2
		c0.3-0.1,0.6-0.1,0.8-0.2c0.3-0.1,0.5-0.1,0.8-0.2c0.3,0,0.5-0.1,0.7-0.1c0.1,0,0.3,0.1,0.3,0.2c0,0,0,0.1,0,0.1l0,0l-0.6,1.3
		c0,0.1-0.1,0.1-0.2,0.1c-0.2,0-0.4,0.1-0.7,0.1c-0.2,0-0.5,0.1-0.7,0.2c-0.2,0.1-0.5,0.1-0.7,0.2c-0.2,0.1-0.5,0.2-0.7,0.2
		c-0.2,0.1-0.5,0.2-0.7,0.3c-0.2,0.1-0.4,0.2-0.7,0.3c-0.2,0.1-0.4,0.2-0.6,0.3c0,0-0.1,0.1-0.1,0.1l3.3,1.5
		c0.1,0.1,0.2,0.2,0.1,0.3l-0.5,1.1c-0.1,0.1-0.2,0.2-0.3,0.1l-7.9-3.7c-0.1-0.1-0.2-0.2-0.1-0.3l0,0l0.5-1.1
		c0.1-0.1,0.2-0.2,0.3-0.1l2.9,1.4l0,0c-0.1-0.2-0.1-0.4-0.2-0.7c-0.1-0.3-0.2-0.5-0.3-0.7c-0.1-0.2-0.2-0.5-0.3-0.7
		c-0.1-0.2-0.2-0.5-0.3-0.7c-0.1-0.2-0.2-0.4-0.2-0.6c-0.1-0.2-0.2-0.4-0.2-0.6c-0.1-0.2-0.1-0.3-0.2-0.5c0-0.1,0-0.1,0-0.2h0
		l0.6-1.3c0.1-0.1,0.2-0.2,0.3-0.1C12.1,32.3,12.1,32.4,12.1,32.5L12.1,32.5z"/>
	<g>
		<path class="st3" d="M57,72.8c2.7,4.4,4.9,10.1,6.3,17.6c-2.6-0.8-5.2-0.8-7.8-0.3C56.5,84.4,56.2,78.4,57,72.8L57,72.8z"/>
		<polygon class="st4" points="39.7,29.5 59.5,27.3 76.3,31 76.2,33.3 76.7,35.4 82.2,35.6 82.6,38 82.2,39.2 79.1,39.5 80.6,41.3 
			81,44.5 80.3,46.5 75,47.4 74.6,49.1 75.5,50.6 77.5,51.4 76.4,53.3 76.6,56 77.5,57.8 44.8,57.5 42.2,56.9 41.7,54.7 41.8,52.4 
			43,50.3 41.9,50.2 39.6,50.1 37.6,49.9 37,48 38.1,46.9 41.5,46.6 43,45.5 43.8,42.5 42.2,39.6 45.2,39.5 45.6,37.2 44.9,34.5 
			39.9,34.4 38.2,34 38,31.2 39.7,29.5 		"/>
		<polygon class="st0" points="55.8,62.3 59,62.2 60.3,67.6 59.1,71.6 56.3,73.2 54.5,71.5 53.9,67.6 55.8,62.3 		"/>
		<path d="M57.6,72.8c1.3,2.2,2.6,4.7,3.6,7.7c1.1,2.9,2,6.3,2.7,10c0.1,0.3-0.1,0.6-0.5,0.7c-0.1,0-0.2,0-0.3,0
			c-1.2-0.4-2.5-0.6-3.7-0.6c-1.3,0-2.5,0.1-3.8,0.3c-0.3,0.1-0.6-0.1-0.7-0.4c0-0.1,0-0.1,0-0.2l0,0c0.5-3,0.7-6.1,0.9-9.2
			c0.1-2.7,0.3-5.5,0.7-8.1c0-0.3,0.3-0.5,0.6-0.5C57.3,72.5,57.5,72.7,57.6,72.8L57.6,72.8z M60.1,80.9c-0.8-2.2-1.7-4.3-2.7-6.1
			c-0.2,2.1-0.3,4.2-0.5,6.3c-0.1,2.8-0.3,5.7-0.7,8.5c1.1-0.2,2.2-0.2,3.3-0.2c1,0,2.1,0.2,3.1,0.4C61.9,86.5,61.1,83.5,60.1,80.9
			L60.1,80.9z"/>
		<path d="M61.5,81.8c-0.1,0.3-0.5,0.4-0.8,0.3c-0.3-0.1-0.4-0.5-0.3-0.8c1.6-3.4,2.8-7.2,3.6-11.1c0.8-3.9,1.3-8.1,1.6-12.3
			c0-0.3,0.3-0.5,0.6-0.5c0.3,0,0.5,0.3,0.5,0.6c-0.4,4.2-0.8,8.4-1.7,12.4C64.3,74.4,63.2,78.3,61.5,81.8L61.5,81.8z"/>
		<path d="M56.9,80.7c0.2,0.3,0.1,0.6-0.1,0.8c-0.3,0.2-0.6,0.1-0.8-0.1c-2.2-3.1-4.4-7-5.7-11.5c-1.1-3.7-1.7-7.7-1.5-12.1
			c0-0.3,0.3-0.6,0.6-0.5c0.3,0,0.6,0.3,0.5,0.6c-0.2,4.2,0.3,8.2,1.4,11.7C52.6,73.9,54.7,77.7,56.9,80.7L56.9,80.7z"/>
		<path d="M58.3,99.7c0,0.3-0.3,0.6-0.6,0.6c-0.3,0-0.6-0.3-0.6-0.6c0-1.7,0-3.4-0.1-5.1C57,93.1,57,91.6,57,90
			c0-0.3,0.3-0.6,0.6-0.6s0.6,0.3,0.6,0.6c0,1.5,0.1,3,0.1,4.5C58.3,96.3,58.4,98,58.3,99.7L58.3,99.7z"/>
		<path d="M62.5,99.8c0,0.3-0.2,0.6-0.5,0.6c-0.3,0-0.6-0.2-0.6-0.5c-0.1-2.1-0.4-4.3-0.6-6.4c-0.1-1.1-0.3-2.2-0.4-3.2
			c0-0.3,0.2-0.6,0.5-0.6c0.3,0,0.6,0.2,0.6,0.5c0.1,1.1,0.3,2.1,0.4,3.2C62.1,95.4,62.4,97.6,62.5,99.8L62.5,99.8z"/>
		<path d="M54.9,69.1c-0.1-0.5,0.5-0.7,0.6-0.1c0.1,0.4,0.3,1.6,1,1.5c0.2,0,0.3-0.1,0.5-0.3c0.5-0.5,1-1.5,1-2.5
			c0-0.5,0.7-0.6,0.7,0c0,1.3-0.5,2.5-1.2,3.2c-0.3,0.3-0.6,0.4-0.9,0.5c-0.7,0.2-1.2-0.2-1.5-0.8C55.1,70.1,55,69.7,54.9,69.1
			L54.9,69.1z M55.8,65.1c0.7,0,0.7,1.4,0.1,1.4C55.1,66.6,55.1,65.2,55.8,65.1L55.8,65.1z M57.5,65c0.7,0.1,0.5,1.5-0.2,1.4
			C56.6,66.4,56.8,64.9,57.5,65L57.5,65z M61.1,66.8c0.3,1.2,0.5,2.4,0.5,3.5c0,0.3-0.2,0.6-0.5,0.6c-0.3,0-0.6-0.2-0.6-0.5
			c0-0.4-0.1-1.2-0.1-1.6c-0.2,1.5-1,3.2-1.9,4.1c-0.5,0.4-1,0.7-1.5,0.8c-1.8,0.4-2.7-1.2-3.2-2.7c0-0.1-0.1-0.3-0.1-0.4
			c0,0.3-0.1,0.6-0.1,0.9c0,0.3-0.3,0.5-0.6,0.5c-0.3,0-0.5-0.3-0.5-0.6c0.2-2.3,0.7-4.6,1.5-6.5c-0.2,0.3-0.3,0.6-0.5,0.9
			c-1.1,2.2-1.9,4.9-2,7.6c0,0.3-0.3,0.6-0.6,0.5c-0.3,0-0.6-0.3-0.5-0.6c0.1-2.9,0.9-5.7,2.1-8.1c0.6-1.1,1.2-2.1,1.9-3
			c-0.5,0.5-1.1,1.2-1.5,1.9c-1.4,2.1-2.5,4.8-3.2,7.8c-0.1,0.3-0.4,0.5-0.7,0.4c-0.3-0.1-0.5-0.4-0.4-0.7c0.7-3.1,1.9-6,3.3-8.2
			c0.4-0.6,4.5-5.8,5.7-4c1-0.9,2.9,0.9,3.5,1.4c1,0.9,2,2.1,3,3.5c0.2,0.3,0.1,0.6-0.2,0.8c-0.3,0.2-0.6,0.1-0.8-0.2
			c-0.8-1.2-1.6-2.2-2.4-3c0.1,0.1,0.1,0.2,0.2,0.2c1.1,1.4,2.2,3.2,3,5.1c0.1,0.3,0,0.6-0.3,0.8c-0.3,0.1-0.6,0-0.8-0.3
			c-0.2-0.4-0.4-0.8-0.6-1.2c0.3,0.7,0.5,1.3,0.7,2c0.1,0.3-0.1,0.6-0.4,0.7C62.4,69.5,62,69.3,62,69C61.7,68.3,61.5,67.6,61.1,66.8
			L61.1,66.8z M54.4,66.8c0,0.6,0,1.2,0,1.9c0,0.7,0.1,1.3,0.3,1.9c0.3,1,0.7,1.5,1.1,1.8l0,0c0.3,0.1,0.5,0.2,0.8,0.1
			c0.3-0.1,0.7-0.3,1-0.5c0.8-0.7,1.3-1.7,1.6-2.7c0.4-1.6,0.5-3.5-0.1-5l0,0.1c0,0.3-0.2,0.6-0.5,0.6c-0.3,0-0.6-0.2-0.6-0.5
			c-0.1,0-0.2,0.1-0.3,0.1c-0.3,0-0.6-0.2-0.6-0.6c0-0.3,0-0.7-0.1-0.9c-0.1,0.3-0.1,0.6-0.1,1c0,0.3-0.3,0.6-0.6,0.5
			c-0.3,0-0.6-0.3-0.5-0.6c0-0.2,0-0.4,0.1-0.6c-0.3,0.5-0.6,1.2-0.9,1.9C54.8,65.7,54.6,66.3,54.4,66.8L54.4,66.8z"/>
		<path d="M81.4,36.1l-35.5-0.4l0.3,1.2c0,0.1,0,0.2,0,0.4l-0.4,1.1l35.6,0.4l0,0v0c0.5,0,0.6-0.3,0.6-0.8c0-0.2,0-0.3,0-0.5h0v0h0
			l0-0.1v0v0C82.1,36.7,82.1,36.1,81.4,36.1L81.4,36.1L81.4,36.1z M75.9,56.1l-12.5-0.3c-0.2,0-0.4-0.2-0.4-0.4
			c0-0.2,0.2-0.4,0.4-0.4l12.3,0.3c0-0.3,0-0.5,0-0.8c0-0.2,0-0.3,0-0.5l-6-0.1c-0.2,0-0.4-0.2-0.4-0.4c0-0.2,0.2-0.4,0.4-0.4
			l6.1,0.1c0.1-0.5,0.4-0.9,0.7-1.3l0,0l-32-0.6c-0.2,0-0.4,0-0.5,0c-0.8,0-1.3-0.1-1.7,0.9c-0.3,0.7-0.4,1.4-0.4,2
			c0,0.7,0.2,1.3,0.4,2c0.3,0.8,0.7,0.8,1.4,0.8c0.2,0,0.3,0,0.5,0l32.2,0.6c0,0-0.1-0.1-0.1-0.1C76.2,57,76.1,56.5,75.9,56.1
			L75.9,56.1z M54.5,54.8c0.2,0,0.4,0.2,0.4,0.4c0,0.2-0.2,0.4-0.4,0.4l-11.2-0.2c-0.2,0-0.4-0.2-0.4-0.4c0-0.2,0.2-0.4,0.4-0.4
			L54.5,54.8L54.5,54.8z M58.9,52.8c0.2,0,0.4,0.2,0.4,0.4c0,0.2-0.2,0.4-0.4,0.4l-15.6-0.2c-0.2,0-0.4-0.2-0.4-0.4
			c0-0.2,0.2-0.4,0.4-0.4L58.9,52.8L58.9,52.8z M79.3,44.7c0.2,0,0.4,0.2,0.4,0.4s-0.2,0.4-0.4,0.4l-33.1-0.5
			c-0.2,0-0.4-0.2-0.4-0.4c0-0.2,0.2-0.4,0.4-0.4L79.3,44.7L79.3,44.7z M79.3,43.1c0.2,0,0.4,0.2,0.4,0.4S79.6,44,79.3,44l-35-0.6
			c0,0.4-0.2,0.9-0.3,1.3c-0.2,0.4-0.5,0.8-0.8,1.1l34.5,0.6c0.2,0,0.4,0,0.6,0c0.9,0,1.5,0.1,1.8-0.9c0.3-0.7,0.4-1.4,0.4-2
			c0-0.7-0.2-1.3-0.5-1.9c-0.4-0.8-0.8-0.8-1.7-0.8c-0.2,0-0.4,0-0.6,0l-34.6-0.5c0.3,0.3,0.6,0.7,0.8,1.2l0,0
			c0.2,0.4,0.3,0.8,0.3,1.2L79.3,43.1L79.3,43.1z M79.3,41.5c0.2,0,0.4,0.2,0.4,0.4c0,0.2-0.2,0.4-0.4,0.4l-30.3-0.5
			c-0.2,0-0.4-0.2-0.4-0.4c0-0.2,0.2-0.4,0.4-0.4L79.3,41.5L79.3,41.5z M40.9,30c-0.1,0.2-0.2,0.5-0.3,0.9c-0.1,0.3-0.1,0.7-0.1,1
			c0,0.3,0,0.7,0.1,1c0.1,0.3,0.2,0.6,0.3,0.8l1.1,0c-0.1-0.2-0.2-0.5-0.2-0.8c-0.1-0.4-0.1-0.8-0.1-1.2c0-0.4,0.1-0.9,0.2-1.2
			c0-0.2,0.1-0.4,0.2-0.6L40.9,30L40.9,30z M39.9,33.7c-0.1-0.2-0.1-0.4-0.2-0.6c-0.1-0.4-0.1-0.8-0.1-1.2c0-0.4,0.1-0.8,0.1-1.2
			c0-0.2,0.1-0.4,0.2-0.6l-0.2,0l0,0c0,0-0.1,0-0.1,0c-0.3,0-0.6,0.1-0.7,0.4c-0.5,0.7-0.6,1.9-0.2,2.7c0.2,0.3,0.4,0.5,0.7,0.5v0
			l0.1,0v0L39.9,33.7L39.9,33.7z M43,29.8c-0.1,0.2-0.2,0.5-0.3,0.9c-0.1,0.3-0.1,0.7-0.1,1.1c0,0.4,0,0.7,0.1,1.1
			c0.1,0.4,0.2,0.7,0.3,0.9l1.1,0c-0.1-0.2-0.1-0.5-0.2-0.8c-0.1-0.4-0.1-0.9,0-1.3c0-0.5,0.1-0.9,0.2-1.3c0.1-0.3,0.1-0.5,0.2-0.7
			L43,29.8L43,29.8z M45,29.5c-0.1,0.2-0.2,0.6-0.3,1c-0.1,0.4-0.1,0.8-0.1,1.2c0,0.4,0,0.8,0,1.2c0.1,0.4,0.2,0.8,0.3,0.9l1.8,0
			c0-0.1,0-0.1-0.1-0.2h0l0,0c-0.2-0.5-0.2-1.2-0.2-1.9c0-0.4,0-0.7,0.1-1.1c0-0.2,0.2-0.4,0.5-0.4c0.2,0,0.4,0.2,0.4,0.5
			c0,0.3-0.1,0.6-0.1,1c0,0.6,0,1.2,0.2,1.7l0,0c0.1,0.2,0.1,0.3,0.2,0.4l1.5,0c0-0.1,0-0.1-0.1-0.2c-0.2-0.6-0.2-1.3-0.2-2
			c0-0.4,0-0.7,0.1-1.1c0-0.2,0.2-0.4,0.5-0.4c0.2,0,0.4,0.2,0.4,0.5c0,0.3-0.1,0.7-0.1,1c0,0.7,0,1.3,0.2,1.8
			c0.1,0.2,0.1,0.4,0.2,0.5l1.9,0c-0.2-0.4-0.3-1-0.4-1.6c-0.1-0.5-0.1-1.1-0.1-1.6c0-0.5,0.1-1.1,0.2-1.5c0-0.2,0.1-0.4,0.2-0.6
			L45,29.5L45,29.5z M52.8,28.6c-0.1,0.2-0.2,0.5-0.2,0.9c-0.1,0.4-0.1,0.9-0.2,1.4c0,0.5,0,1,0,1.5c0.1,0.8,0.3,1.4,0.5,1.7l1,0
			c-0.2-0.5-0.3-1-0.4-1.6c-0.1-0.5-0.1-1.1,0-1.7c0-0.6,0.1-1.1,0.2-1.6c0-0.2,0.1-0.5,0.2-0.7L52.8,28.6L52.8,28.6z M54.8,28.4
			c-0.1,0.2-0.2,0.5-0.3,0.9c-0.1,0.4-0.1,0.9-0.2,1.5c0,0.5,0,1.1,0,1.6c0.1,0.8,0.3,1.5,0.5,1.7l1,0c-0.2-0.4-0.3-1-0.4-1.6
			c-0.1-0.6-0.1-1.2,0-1.8c0-0.6,0.1-1.2,0.2-1.7c0.1-0.3,0.1-0.6,0.2-0.8L54.8,28.4L54.8,28.4z M56.9,28.1
			c-0.1,0.2-0.2,0.6-0.3,1.1c-0.1,0.5-0.2,1-0.2,1.6c0,0.6,0,1.1,0,1.6c0.1,0.8,0.2,1.4,0.5,1.7l2,0c-0.2-0.5-0.4-1.1-0.5-1.7
			c-0.1-0.6-0.1-1.3-0.1-1.9c0-0.6,0.1-1.3,0.2-1.8c0.1-0.3,0.1-0.6,0.2-0.8L56.9,28.1L56.9,28.1z M60.1,26.6L60.1,26.6L60.1,26.6
			L60.1,26.6L60.1,26.6L60.1,26.6L60.1,26.6L60.1,26.6L60.1,26.6L60.1,26.6L60.1,26.6L60.1,26.6L60.1,26.6L60.1,26.6L60.1,26.6
			L60.1,26.6L60.1,26.6L60.1,26.6l0.1,0l0,0l0,0l0,0l0,0l0,0l16.4,3.8c0.3,0.1,0.5,0.4,0.4,0.7c0,0,0,0.1,0,0.1l0,0
			c-0.3,0.7-0.5,1.4-0.5,2c0,0.6,0.1,1.1,0.4,1.4c0.1,0.1,0.1,0.2,0.1,0.3l4.4,0.1l0,0c1.8,0.1,1.8,1.2,1.8,2.3v0l0,0.1h0v0h0
			c0,0.2,0,0.4,0,0.5c0,1.1-0.3,1.9-1.8,1.9v0l-1.3,0c0.3,0.2,0.6,0.6,0.9,1.2c0.4,0.8,0.6,1.5,0.6,2.4c0,0.8-0.1,1.6-0.4,2.5
			c-0.7,1.7-1.5,1.6-2.9,1.6c-0.2,0-0.4,0-0.6,0l-1,0c0,0.3-0.3,0.5-0.5,0.5v0c-0.6,0-0.8,0.7-0.8,1.1c0,0.2,0,0.4,0.1,0.6
			c0.1,0.3,0.4,0.5,0.8,0.6c0.3,0,0.5,0.2,0.5,0.5l2.2,0c0.3,0,0.6,0.3,0.6,0.6c0,0.3-0.3,0.5-0.6,0.6v0c-0.6,0-1.1,0.3-1.4,0.7
			c-0.4,0.5-0.6,1.2-0.6,2c0,0.7,0.2,1.5,0.6,2.1c0.3,0.4,0.8,0.8,1.4,0.8c0.3,0,0.5,0.3,0.5,0.6c0,0.3-0.3,0.5-0.6,0.5l0,0L44.4,58
			c-0.2,0-0.3,0-0.5,0c-1.2,0-1.9,0-2.5-1.5c-0.3-0.8-0.5-1.5-0.5-2.4c0-0.8,0.1-1.6,0.5-2.5c0.2-0.4,0.3-0.7,0.5-0.9l-3.1-0.1
			c-1.1,0-1.8-0.5-2.2-1.3c-0.1-0.3-0.2-0.6-0.2-0.9c0-0.3,0.1-0.6,0.2-0.9c0,0,0,0,0-0.1c0.3-0.6,0.8-1.1,1.6-1.2
			c0.1,0,0.2,0,0.3-0.1c0.3,0,0.5,0,0.8,0l0.4,0c0-0.3,0.3-0.5,0.6-0.5c1.4,0,2.3-0.7,2.7-1.5c0.2-0.4,0.3-0.8,0.3-1.1
			c0-0.4-0.1-0.8-0.3-1.2l0,0c-0.4-0.9-1.4-1.6-2.8-1.7c-0.3,0-0.6-0.3-0.5-0.6c0-0.3,0.3-0.6,0.6-0.5l0,0l4.3,0.1
			c0-0.1,0-0.2,0-0.3l0.5-1.7l-0.5-1.8l0,0c0,0,0-0.1,0-0.2c0,0,0-0.1,0-0.1l-4.1-0.1c-0.6,0-1.2,0-1.8-0.2
			c-0.4-0.2-0.7-0.5-0.9-0.9c-0.7-1.1-0.5-2.9,0.2-3.9c0.4-0.5,0.9-0.8,1.6-0.8l20.1-2.4C59.9,26.6,60,26.6,60.1,26.6L60.1,26.6z
			 M60,27.8c-0.1,0.1-0.2,0.5-0.3,1.2c-0.1,0.5-0.2,1.1-0.2,1.7c0,0.6,0,1.2,0.1,1.7c0.1,1,0.4,1.9,0.9,1.9v0h0l15.1,0.2
			c-0.1-0.4-0.2-0.8-0.2-1.2c0-0.6,0.1-1.2,0.3-1.8L60,27.8L60,27.8L60,27.8z M74.5,47.9l-35.6-0.6c-0.7,0-1.1,0.3-1.3,0.7l0,0
			c-0.1,0.1-0.1,0.3-0.1,0.5c0,0.2,0,0.3,0.1,0.4c0.1,0.2,0.3,0.4,0.5,0.5c0.5,0.2,1.3,0.1,1.7,0.1l34.6,0.7c0,0,0-0.1-0.1-0.1
			c-0.1-0.3-0.2-0.6-0.2-1c0-0.3,0.1-0.7,0.2-1l0,0C74.4,48,74.4,48,74.5,47.9L74.5,47.9z"/>
	</g>
</g>
</svg>
