<svg xmlns="http://www.w3.org/2000/svg" width="789.17" height="1001.98" viewBox="0 0 789.174 1001.976" enable-background="new 0 0 789.174 1001.976"><text transform="translate(-5921.43 8866.45)" font-family="&apos;MyriadPro-Regular&apos;" font-size="315.79"/><path d="m486.35 883.56l-23.684 2.631c0-26.314 2.631-34.21 13.157-50 34.21-42.1 163.16-268.42 163.16-334.21 0-13.158 0-36.844-10.527-47.37-23.685-36.842-47.37-86.84-84.21-123.68-23.685-23.686-47.37-36.842-57.896-63.16-39.473-34.21-63.16-57.895-97.37-97.37-13.158-13.158-13.158-23.686-13.158-50s-7.895-47.37-7.895-73.68c0-23.688 0-36.844 21.05-36.844 23.685-13.158 47.37-13.158 57.895 0 23.686 26.314 60.53 50 84.21 76.32 73.69 84.21 155.26 197.37 228.95 268.42 23.685 26.316 23.685 47.37 23.685 73.69v57.895c13.158 36.844 0 76.32-13.158 113.16-36.842 73.68-97.37 210.52-157.89 260.53-26.316 10.525-44.736 42.1-71.05 36.842-10.522-2.629-55.26-13.156-55.26-13.156m-192.1-334.21c5.263-15.789 5.263-47.37-21.05-60.52-21.05-7.895-28.946-26.314-47.37-50-10.527-10.527-26.316-34.21-34.21-47.37 0-13.156-63.16-71.05-73.68-97.37-13.158-26.316-26.315-50-26.315-76.32 0-7.895-13.158-60.53 0-71.05 26.315-26.316-7.895-60.53 15.789-86.84 0-13.158 42.1-13.158 57.895-13.158 21.05 0 31.58 13.158 44.737 26.314 47.37 63.16 97.37 110.53 144.74 171.06 26.316 36.842 60.53 63.16 84.21 97.37 34.21 36.844 50 89.48 34.21 147.37-7.895 73.69-36.843 136.84-84.21 197.37-5.264 13.158-34.21 34.21-42.11 50-10.527 44.738-207.89 252.63-242.1 252.63-7.895 0-18.421 13.158-34.21 13.158-7.895 0-15.789-42.1-34.21-60.52 0-10.527-13.158-23.686-13.158-36.844-21.05-36.842-39.474-84.21 0-123.68 18.421-18.422 31.579-21.05 57.895-36.844 15.785.004 144.73-105.26 213.15-194.73"/></svg>