<svg fill="#233ee0" xmlns="http://www.w3.org/2000/svg" viewBox="0 0 13 16" enable-background="new 0 0 13 16"><path d="m13 4.6c-.7-3.2-1.8-4.2-2-4.4-.4-.3-1.1-.2-1.4.2-.3.4-.3 1 .1 1.4 0 0 .8.8 1.4 3.3.1.5.6.8 1.2.7.5-.2.8-.7.7-1.2m-5.4 1.9c-2.3-.7-4.3-3.3-4.3-3.3-.4-.4-1-.5-1.4-.1-.4.4-.5 1-.2 1.4.1.1 2.4 3 5.2 3.9.2.1.4.1.6 0 .3-.1.6-.3.7-.6.2-.5-.1-1.1-.6-1.3m-2.2 6.9c-2.3 1.2-3.8.3-3.8.3-.4-.3-1.1-.1-1.4.3-.3.5-.2 1.1.2 1.4.1.1 1.8 1.1 4.4.4.4-.1.9-.3 1.4-.6.5-.3.7-.8.5-1.3-.2-.5-.8-.7-1.3-.5"/></svg>