<svg xmlns="http://www.w3.org/2000/svg" viewBox="0 0 15 10" enable-background="new 0 0 15 10"><path d="m14.7 1.6c0-.1 0-.1 0-.2 0 0 0-.1 0-.1-.2-.5-.7-.9-1.4-.9h.1c0 0-2.5-.4-5.9-.4-3.4 0-5.9.4-5.9.4h.1c-.7 0-1.2.4-1.4.9 0 0 0 0 0 .1 0 .1 0 .1 0 .2-.1.6-.3 1.9-.3 3.4 0 1.5.2 2.8.3 3.4 0 .1 0 .1 0 .2 0 0 0 0 0 .1.2.5.7.9 1.4.9h-.1c0 0 2.5.4 5.9.4 3.4 0 5.9-.4 5.9-.4h-.1c.6 0 1.2-.4 1.4-.9 0 0 0 0 0-.1 0-.1 0-.1 0-.2.1-.6.3-1.9.3-3.4 0-1.5-.2-2.8-.3-3.4m-5 3.7l-3 2.1c-.1 0-.1.1-.2.1-.1 0-.1 0-.2 0-.1-.1-.2-.2-.2-.3v-4.3c0-.1.1-.3.2-.3.1-.1.3 0 .4 0l3 2.1c.1.1.2.2.2.3 0 .1-.1.2-.2.3"/></svg>