<svg xmlns="http://www.w3.org/2000/svg" viewBox="0 0 85 18" enable-background="new 0 0 85 18"><path d="m84.6 8.2c-2.6-2.4-5.4-4.5-8.5-6.3-1.5-.8-2.9 1.5-1.3 2.3 2.1 1.2 4 2.5 5.8 4-12.2-.3-24.2-2.8-36.3-2.7-9.8.1-20.1.6-29.9 1.8.1-.3.1-.7-.1-1-2.3-3.7-8.7-9.7-12.2-3.8-1 1.7-.6 3.8.7 5.2.8.9 1.8 1.4 2.9 1.7-2.4 1.6-4.4 3.7-5.6 6.3-.3.7-.1 1.6.7 1.8 6.2 2 11.4-2.6 14.2-7.8 9.7.5 19.6-1.1 29.2-1.3 11.4-.2 22.6 2 33.9 2.6-1.1.9-2.2 1.7-3.4 2.5-1.3.8-.4 3.2 1.1 2.6.1 0 .2-.1.3-.2 0 0 .1 0 .1-.1 3.2-1.4 5.8-3.2 8.4-5.7.5-.5.5-1.4 0-1.9m-80.5-4.5c1.8-3.4 5.5.3 7.2 2.7-.9.4-1.9.8-2.8 1.3-2.6-.4-5.6-1.5-4.4-4m-1.1 11.8c1.7-2.7 4.6-4.6 7.5-6.1.1 0 .2 0 .2-.1.5.1 1 .1 1.5.2-2 3.4-5.1 6.4-9.2 6" fill="#fedb47"/></svg>