<?xml version="1.0" encoding="utf-8"?>
<!-- Generator: Adobe Illustrator 16.0.0, SVG Export Plug-In . SVG Version: 6.00 Build 0)  -->
<!DOCTYPE svg PUBLIC "-//W3C//DTD SVG 1.1//EN" "http://www.w3.org/Graphics/SVG/1.1/DTD/svg11.dtd">
<svg version="1.1" id="Layer_1" xmlns="http://www.w3.org/2000/svg" xmlns:xlink="http://www.w3.org/1999/xlink" x="0px" y="0px"
	 width="12px" height="7px" viewBox="0 0 12 7" enable-background="new 0 0 12 7" xml:space="preserve">
<path fill-rule="evenodd" clip-rule="evenodd" d="M5.534,0.174C5.941-0.044,6.399-0.09,6.843,0.229
	c1.951,1.516,4.098,3.873,5.056,5.268c0.386,0.794-0.448,1.188-0.583,1.295c-0.395,0.145-0.871,0.08-1.072-0.017
	C8.937,5.564,6.671,2.643,6.225,2.662C5.558,2.681,3.248,5.641,1.817,6.907c0,0-0.697,0.271-1.229-0.11
	C0.053,6.412-0.265,5.387,0.292,4.817c1.747-1.479,3.186-2.909,4.933-4.387C5.182,0.452,5.448,0.217,5.534,0.174z"/>
</svg>
