<svg xmlns="http://www.w3.org/2000/svg" viewBox="0 0 15 15" enable-background="new 0 0 15 15"><path d="m12.1 0h-9.2c-1.6 0-2.9 1.3-2.9 2.9v3.1 6.1c0 1.6 1.3 2.9 2.9 2.9h9.2c1.6 0 2.9-1.3 2.9-2.9v-6.1-3.1c0-1.6-1.3-2.9-2.9-2.9m.8 1.7h.3v.3 2.2h-2.5v-2.5h2.2m-7.5 4.3c.5-.7 1.3-1.1 2.1-1.1.9 0 1.7.4 2.1 1.1.3.4.5 1 .5 1.5 0 1.5-1.2 2.6-2.6 2.6-1.5 0-2.6-1.1-2.6-2.6 0-.6.1-1.1.5-1.5m8.1 6.1c0 .8-.6 1.4-1.4 1.4h-9.2c-.8 0-1.4-.6-1.4-1.4v-6.1h2.2c-.2.4-.3 1-.3 1.5 0 2.3 1.8 4.1 4.1 4.1 2.3 0 4.1-1.8 4.1-4.1 0-.5-.1-1.1-.3-1.5h2.2v6.1"/></svg>