<svg xmlns="http://www.w3.org/2000/svg" viewBox="0 0 168 179.95" enable-background="new 0 0 168 179.95"><path fill-rule="evenodd" fill="#fedb47" d="m159.77 72.03c-5.154.751-7.842-1.589-9.68-6.087-.907-2.223-1.505-4.913-4.824-5.468-7.155-1.198-14.168-3.252-21.479-3.522-4.899 0-9.802 0-14.708 0-10.279.381-19.09 3.594-24.745 13.495-5.847-8.988-13.827-13.347-24.05-13.495-4.912 0-9.828 0-14.745 0-5.865-.146-11.437 1.959-17.18 2.372-6.626.477-10.176 4.02-12.1 9.846-1.072 3.258-3.28 3.844-6.458 3.906-3.252.064-6.822-1.522-9.806 1.117.878 1.382.352 2.914.353 4.361.039 33.796.03 67.59.03 101.39 3.661 0 11.269-.974 11.914-.964 12 .182 23.868-2.041 35.861-2.058 1.792-.003 3.592-.303 5.365-.482 9.466-.958 19.02-1.865 27.728 3.504 2.329 0 4.658 0 6.987 0 3.618-1.588 7.423-2.665 11.09-4.109.98-.386 1.837-.102 2.781-.078 11.188.286 22.315 1.608 33.48 2.058 4.423.178 8.799.992 13.209 1.237 1.78.099 14.772.879 19.2.891v-103.3c-.022-.323-.028-.645 0-.964v-1.926c-2.435-1.927-5.391-2.136-8.233-1.72m-12.789 62.38c.53-21.384.164-42.79.536-64.37 2.679 5.423 7.575 9.818 7.591 16.467.06 24.736.024 49.47.024 74.53-6.623-8.07-8.396-16.789-8.151-26.629m-60.65-52.91c.2-14.211 6.338-18.44 19.15-20.222 11.789-1.639 23.933-.683 35.683 2.565 1.695.469 2.02.832 2.01 2.429-.052 26.14-.095 52.29.043 78.43.016 2.959-1.858 2.549-3.134 2.225-8.953-2.28-18.05-2.968-27.24-2.992-9.783-.025-18.759 2.298-26.606 9.306-.0001-24.455-.244-48.1.089-71.74m-.059 81.19c1.286-6.704 8.848-12.64 15.868-13.818 13.442-2.256 26.572-.071 39.724 2.09 1.561.256 3.384.963 4.28 2.703 1.979 3.846 3.967 7.688 6.453 12.507-11.08-1.061-21.442-2.212-31.833-2.996-8.293-.626-16.593-1.116-24.881-1.823-2.272-.192-4.386 2.646-6.844 3.819-4.292 2.045-2.989-1.319-2.767-2.482m-60.971-96.2c-.004-1.823.46-2.137 2.293-2.672 11.583-3.38 23.495-3.747 35.22-2.633 12.286 1.167 19.18 6.896 19.351 20.1.308 23.764.086 47.534.086 71.53-10.185-8.04-22.15-9.603-34.34-8.657-6.404.496-13.02.542-19.295 2.752-1.417.499-3.37.644-3.352-2.479.154-25.978.106-51.956.046-77.933m.896 84.41c10.682-1.747 21.359-3.677 32.24-2.895 5.139.369 10.219 1.092 15.01 3.542 5.237 2.675 6.979 7.504 8.751 12.389.434 1.199.231 2.918-2.042 1.457-10.619-6.821-21.76-2.245-32.727-1.37-3.877.31-7.688-.207-11.682.606-5.925 1.208-12.196-.324-19.266 2.08 2.752-5.476 4.89-9.578 6.87-13.755.626-1.32 1.357-1.811 2.844-2.054m-12.811-66.3c.016-6.127 5.511-9.419 7.961-14.361 0 24.684.115 49.37-.078 74.05-.051 6.455-4.537 11.225-7.91 16.371 0-25.354-.036-50.709.027-76.06m150.73 84.83c0 7.377-.149 8-7.26 6.313-5.923-1.41-11.825-.419-17.753-1.551-7.155-1.366-14.792-.18-21.968-1.485-5.587-1.017-11.29.362-16.732-1.666-1.733-.646-3.177 1.018-4.71 1.81-5.402 2.789-11.873 3.737-16.852 1.568-8.585-3.741-16.722-2.039-25.278-1.651-15.1.684-30.14 1.998-45.2 3.242-4.01.332-5.144-.627-5.11-4.909.232-29.662.277-59.33-.023-88.988-.053-5.202 1.177-7.165 6.307-6.187.799.153 1.652.021 2.827.021-2.586 2.871-3.073 6.154-3.058 9.792.112 25.831.06 51.662.06 77.49 0 7.097 1.814 8.411 8.896 6.19.783-.245 1.492-.521 2.298-.471 9.05.558 22.518-.414 31.455-1.163 8.262-.691 9.776-1.56 17.765-1.786 4.03-.114 6.364 2.807 10.122 3.415 5.371.872 10.1.535 14.51-2.322 1.389-.901 2.578-1.313 4.045-1.138 11.01 1.319 22.05 1.772 33.13 2.073 8.06.22 16.11 1.166 24.15 1.955 2.875.283 3.46-.732 3.449-3.488-.108-27.663-.135-55.33.019-82.99.02-3.656-2.59-5.672-4-8.539 8.911.069 8.911.069 8.911 8.471-.0001 28.665-.0001 57.33-.0001 85.992"/><path d="m84.975 53.34c-3.167-1.091-6.953-.698-9.891 1.026-.176-2.753-.899-5.488-2.247-8.05-4.333-8.233-13.1-9.08-21.13-6.988-2.798.729-1.61 5.097 1.192 4.366 5.537-1.443 10.448-1.59 14.625 2.876 5.058 5.406 3.443 13.275.011 18.973-3.089 5.127-9.08 8.82-15.08 7.444-8.194-1.88-9.07-12.488-7.689-19.12.593-2.849-3.729-4.061-4.324-1.203-1.861 8.942-.301 18.553 8.04 23.56 7.133 4.282 15.899.003 20.842-5.574 2.667-3.01 4.485-6.625 5.307-10.418.411-.07.821-.287 1.188-.695 1.975-2.201 5.237-2.767 7.963-1.828 2.742.944 3.91-3.431 1.19-4.367m75.28-49.13c-20.779-17.318-33.941 23.12-36.82 42.29-.059-.159-.112-.324-.173-.481-3.982-10.136-12.782-15.829-23.517-14.457-2.829.361-2.863 4.895 0 4.528 8.219-1.051 14.176 2.063 18.28 9.31 3.269 5.769 3.802 13.313 1.15 19.408-3.346 7.69-12.267 9.929-19.2 5.848-9.208-5.42-9.271-16.747-4.413-24.991 1.482-2.516-2.395-4.792-3.872-2.286-5.881 9.98-5.284 21.08 3.426 29.22 7.324 6.851 18.473 5.948 25.13-1.248 4.223-4.564 5.544-11.07 4.936-17.279 1.062-.075 2.1-.794 2.162-2.171.495-11.04 12.05-59.24 29.737-44.495 2.212 1.842 5.403-1.343 3.171-3.203m-115.71 39.11c-.1 2.921 4.385 2.911 4.484 0 .402-11.773-1.556-26.597-9.87-35.522-10.381-11.145-24.64 3.835-31.55 11.324-1.968 2.134 1.196 5.344 3.171 3.202 6.679-7.239 19.16-21.1 27.518-8.361 5.342 8.142 6.572 19.827 6.247 29.357"/></svg>