<svg xmlns="http://www.w3.org/2000/svg" viewBox="0 0 15 15" enable-background="new 0 0 15 15"><path d="m7.5 0c-4.1 0-7.5 3.4-7.5 7.5 0 3.1 1.8 5.7 4.5 6.9 0-.5 0-1.2.1-1.7.1-.6 1-4.1 1-4.1s-.3-.5-.3-1.2c0-1.1.6-1.9 1.4-1.9.7 0 1 .5 1 1.1 0 .7-.4 1.7-.7 2.7 0 .7.5 1.4 1.3 1.4 1.4 0 2.4-1.8 2.4-4 0-1.6-1.1-2.9-3.1-2.9-2.3 0-3.7 1.7-3.7 3.6 0 .7.2 1.1.5 1.5.1.1.1.2.1.4 0 .1-.1.5-.2.6-.1.2-.2.3-.4.2-1-.4-1.5-1.6-1.5-2.9 0-2.1 1.8-4.7 5.4-4.7 2.9 0 4.8 2.1 4.8 4.3 0 2.9-1.6 5.1-4 5.1-.8 0-1.6-.4-1.8-.9 0 0-.4 1.7-.5 2.1-.2.6-.5 1.2-.8 1.6.5.2 1.3.3 2 .3 4.1 0 7.5-3.4 7.5-7.5 0-4.1-3.4-7.5-7.5-7.5"/></svg>