<svg xmlns="http://www.w3.org/2000/svg" height="74.06" viewBox="0 0 41.938 74.063"><path d="m40.92 54.15c-.182 4.467-2.92 18.913-2.92 18.913h-17l-17.387-.08c0 0-2.973-16.267-2.573-20.13.847-8.178 1.189-14.83 7.719-18.13-.224-5.739-2.864-16.36-2.591-22.13.154-3.274.375-9.134 3.958-10.854 10.276-4.932 8.306 15.89 7.874 31.32-.017.61 5.196.37 5.196.37 0 0-1.235-30.521 7.998-29.982 5.43-.886 5.445 6.274 5.153 11.56-.373 6.732-2.373 14.496-4.146 21.01 7.441 3.044 9.04 10.155 8.719 18.13" fill="#aebbf1" stroke="#000" fill-rule="evenodd" stroke-width="2"/></svg>