<?xml version="1.0" encoding="utf-8"?>
<!-- Generator: Adobe Illustrator 16.0.0, SVG Export Plug-In . SVG Version: 6.00 Build 0)  -->
<!DOCTYPE svg PUBLIC "-//W3C//DTD SVG 1.1//EN" "http://www.w3.org/Graphics/SVG/1.1/DTD/svg11.dtd">
<svg version="1.1" id="Layer_1" xmlns="http://www.w3.org/2000/svg" xmlns:xlink="http://www.w3.org/1999/xlink" x="0px" y="0px"
	 width="13px" height="27px" viewBox="0 0 13 27" enable-background="new 0 0 13 27" xml:space="preserve">
<path d="M1.518,0C0.68,0,0,0.675,0,1.507c0,3.289,2.983,7.26,9.103,12.122c-0.165,0.139-0.329,0.279-0.496,0.424
	C4.573,17.493,0,21.394,0,25.492C0,26.324,0.68,27,1.518,27c0.835,0,1.515-0.676,1.515-1.508c0-2.713,4.362-6.436,7.547-9.154
	c0.672-0.57,1.32-1.123,1.915-1.65c0.339-0.301,0.522-0.733,0.505-1.184c-0.018-0.45-0.236-0.868-0.597-1.14
	c-8.152-6.169-9.37-9.45-9.37-10.857C3.032,0.675,2.353,0,1.518,0"/>
</svg>
