<svg fill="#aebbf1" xmlns="http://www.w3.org/2000/svg" viewBox="0 0 185 134" enable-background="new 0 0 185 134"><path d="m39.2 3.1c.1-.1.3-.1.5-.1 0 0-.1-.1-.1-.1-.2 0-.3.1-.4.2m-36.3 84.6c.2 0 .3-.2.5-.3-.2 0-.3.1-.5.1 0 .1 0 .1 0 .2m7.5 38.9c.5-.1.4.3.8.3.1-.5-.5-.5-.8-.6.2-.6.4-1.2 1.1-1.3-.5-.8-1.2-1.6-1.9-2.2-.9-1.1-2.3-1.8-3.6-2.2-.1 0-.2 0-.3 0 0 0 0-.1 0-.1-.7-.2-1.5-.4-2.1-.5-.3-1-.5-1.7-.5-2.2-.1-.1-.1-.3 0-.4 0-.5.2-.9.5-1.6 4.3-1 7.4-4.7 7.4-9.1 0-.3 0-.3.1-.6.2-.3.4-.9.4-1.8 0-4.4-3.2-8.3-7.5-9.3-1-2.1-1.1-2.7-.2-4.6 4-.9 7.9-4.5 7.9-9.2 0-.8-.2-1.3-.3-1.6-.1-.2-.1-.3-.1-.7 0-4.7-2.8-8.5-6.9-9.5-1.1-2.2-1.2-2.6-.4-4.3 4.3-1 7.5-4.9 7.5-9.3 0-.5 0-.8 0-1 0-.1 0-.2 0-.3-.3.4-.9.5-1.7.5-.3-.2-.2-.7-.2-1.2.4.9.9.1 1.9.4 0-.2 0-.4 0-.7 0-.2 0-.4 0-.6-.1 0-.2-.1-.4-.1 0-.2.2-.3.3-.3-.1-.9-.4-1.8-.8-2.6-.3.1-.7 0-.9-.1 0-.3.2-.5.5-.7-.5-.8-1-1.5-1.7-2.2-.2.1-.5.2-.8.3.1-.3.1-.6.3-.8-.5-.4-1.1-.8-1.7-1.1-.3.2-1-.1-1.4-.1-.1-.2.2-.3.2-.4.1 0 .2 0 .3.1-.5-.2-.9-.3-1.4-.4-.6-1.3-.6-1.8-.1-3-.1 0-.1.1-.2.1-.3-.2-.9-.2-1.3-.3.2-.6 1-.7 1.9-.7.1-.2.1-.3.2-.5.1 0 .1 0 .2-.1.1-.1.1-.2.2-.4.1 0 .2.1.3.2 1.9-.7 3.3-2 4.3-3.9-.1-.1-.2-.1-.3-.2-.5 0-.3.6-.4 1-.9.3-1.7.2-2.6.2 0 .1 0 .2 0 .4-.6 0-.6-.4-1.2-.3-.5.1-.4.8-.8 1-.1.2-.3.4-.3.5-.3 0-.3-.7-.1-.8-.4-.2-1 0-1.5.1-.2-.1-.3 0-.3.2l-.3.7c-.1.2-.2.4-.3.6 1.2-.5 1.9.4 2.3 1-1 .3-1.7-.3-2.4-.6v-.3c-.2.4-.4.8-.5 1.2.2-.1.4-.2.7-.2.1.4 0 .6-.2.8-.4.1-.4-.2-.6-.3-.6 1.6-.4 3 .8 5.4.2.3.4.5.7.7.2 0 .4.1.5.1 1.7.3 3.3 1.2 4.5 2.6.3-.1.5-.1.8-.2.2.6.2 1 0 1.4.4.8.7 1.7.7 2.7 0 .5 0 .8 0 1 0 .3-.1.7-.1 1.3 0 1.5-.5 2.8-1.4 3.9.3.1.6.1.9.1.2.8-.8.7-1.2 1.1-.4 0-.7-.1-.9-.1-.9.8-2.1 1.3-3.3 1.5-.5.1-.9.4-1.1.8-1.8 3.5-1.4 4.7.2 7.8l.2.4c.2.4.6.7 1.1.8.8.1 1.6.4 2.3.9 1.2.2 1.5 1.1 2.4 1.6 0 .4-.2.5-.5.5.6 1.1.9 2.3.9 3.7.1-.6.6-.9.9-1.4 1 .5-.4 1.2-.9 1.5 0 .7.2 1.2.3 1.5.1.2.1.3.1.7 0 2.9-2.3 5.2-4.9 6.1.1 0 .1 0 .2.1.5.5-.7.5-.4 1.3h-1c.1-.5-.2-.8-.4-1-.3.1-.6.4-.8.7-1.2 2.4-1.5 3.9-1.1 5.5 0 0 .1.1.1.1 1-1.2 2.8.2 2.1 1.3-.7-.2-1.3-.1-1.8-.1.2.5.5 1.1.8 1.8.2.4.6.7 1.1.8 1 .2 2 .5 2.8 1.1 0-.4.1-.7.6-.6.3.3.2.8-.3.8.8.6 1.5 1.4 1.9 2.3.6-.1.6.5.4.8.2.7.4 1.4.4 2.1 0 .3 0 .3-.1.6-.2.3-.4.9-.4 1.8 0 3.2-2.3 5.8-5.6 6.3-.5.1-.9.4-1.1.8-1.7 3.2-1.3 4.7-.4 7.3l.2.8c.2.6.7 1 1.3 1.1 1.6.2 3.1.6 4.1 1.2.6 0 .8.2.8.6.1.1.2.2.3.3.1.1.1.1.2.2.8.7 1.5 1.6 2 2.6.2-.6.4-1 .8-1.3m.1-20.3c-.1.3.3 1-.4.8-.3-.3-.2-.9.4-.8m-2.7 17.4c0-.4 0-.6-.4-.6.2-.4.6-.6 1.2-.7-.1.6.1.9.2 1.3h-1m176.3-111.8c0 0-.1.1-.1.1 0 .1.1.2.2.3-.1-.1-.1-.2-.1-.4m-177.5 62.3c.1.2.3.4.4.5-.1-.2-.2-.4-.4-.5m-4.1-52.5c1.3.2 2.7.8 3.7 1.7.5.1 1.1.2 1.6.3.1.4 0 .6-.2.8-.1 0-.2 0-.3 0 .8 1 1.2 2.2 1.2 3.6 0 0-.1.1-.1.2-.3.4-.7 1-.7 2.1 0 1.5-.3 3.1-1.2 4.4 0 .1.1.2.1.4.3.1.7.3 1.2.2.2-.1.3-.3.4-.6.8.1 1.2-.1 1.7-.1.5-1.3.8-2.8.8-4.4 0 0 .1-.1.1-.2.3-.3.7-.9.7-1.9-.3 0-.6-.1-.8-.3 0-.4.4-.4.8-.3-.2-4.1-3.4-7.8-7.7-8.8-.7-2-.5-2.7 0-4.6.1-.5.3-1.1.5-1.7 1.3-.3 2.5-.8 3.6-1.5.3-.5.7-.8 1.2-1.1.1 0 .1 0 .2 0 .1-.1.3-.3.4-.4 1.6-1.3 2.6-3.3 3-5.8.1 0 .3-.1.4-.1 1.9-.7 2.4-.9 3.8-.2 1 4.6 4.7 7.9 9.1 7.9.4 0 .6 0 .9.1.3.1.7.1 1.5.1 4.5 0 8.3-3.3 9.3-7.9.1 0 .2-.1.2-.1.1-.2.4-.4.3-.8.7 0 1.3-.1 2-.4.1.7 1.1.9 2 .6 0 .5.1 1 .1 1.4 1.1 4.3 4.8 7.2 9.2 7.2.3 0 .5 0 .7.1.3.1.8.3 1.6.3 4.2 0 7.9-3.2 8.9-7.7.4 0 .6 0 .9.1.5 0 1 .1 1.9.1.6 0 .9.1 1.2.1.3.1.5.1.9.2.2.7.5 1.3.8 1.8 0 0 0-.1 0-.1.3 0 .3.3.6.3 0 .2-.2.1-.2 0-.1.1-.1.1-.2.2 1 1.6 2.5 2.8 4.2 3.6.7-.4.6-1.4 1.6-1.7-.6.9 0 1.6.1 2.2.7.2 1.5.3 2.3.3.2 0 .2 0 .4.1.3.1.8.3 1.6.3 4.3 0 8.2-3.2 9.4-7.4 1.1 0 1.8-.2 2.5-.3.2 0 .4-.1.6-.1 0-.1.1-.1.1-.2.2 0 .3.1.4.1.3 0 .7-.2 1.1-.2.2 1.1.6 1.8 1.1 2.8h.8c-.3 0-.3.6-.4.9.7.6 1.2 1.2 1.6 1.7.3 0 .5 0 .5.5 0 0 0 0-.1 0 1.6 1.4 3.7 2.2 5.9 2.2.9 0 1.4-.3 1.8-.5 0 0 .1-.1.2-.1 4.3 0 7.7-2.6 8.9-6.6.2 0 .3 0 .4-.1.1-.1.3-.2.2-.4.1.1.4.2.4.1 1-.1.5-.1.6-.2.4-.2.7-.3 1.2-.3.7 0 1.1.1 1.4.1.3.1.7.1 1.1.2-.1-.3 0-.6.2-.9-.9-.4-1.9-1.3-.8-2.1.2.2.4.3.5.5 0 0 0 .1.1.1.5.5 1.1 1 1.7 1.4-.1.4-.3.7-.4 1 .1 0 .3 0 .4-.1.5 1.9 1.6 3.6 3.4 5.2.3.4.7.8 1.2 1.2.2.1.4.2.6.3l.3.1c.4.1.9.2 1.4.2.5-.3.8-.8 1.5-1 .3.8-.1 1-.7 1.2.4.2.9.4 1.7.4 4.5 0 8.3-3.4 9.3-7.9 1.6-.8 2.2-.8 3.6-.2.7 0 1.6.3 1.3 1.2-.1 0-.2 0-.3 0 .7 2.1 2 3.8 3.8 4.9.1-.1.3-.2.4-.2.3.1.5.5.6.8 1.3.6 2.8 1 4.4 1 .3 0 .3 0 .6.1.3.1.9.4 1.8.4 2.8 0 5.3-1.3 7.1-3.5-.5-.4-.7-1.2.5-1.1 0 .1 0 .2 0 .3.8-1.1 1.3-2.4 1.6-3.8.1 0 .1 0 .2-.1-.1-.2-.2-.3-.5-.4.1-.6.5-.4 1-.3 0 .2 0 .3 0 .5 1.6-.5 2.4-.3 4.2.3.1 0 .2.1.3.1.1-.1.3-.2.6-.2 0 .1 0 .3 0 .4.2.1.4.1.6.2.1.6.3 1.1.4 1.6.1.2.2.4.2.6.6 1.3 1.4 2.4 2.4 3.3.1.1.2.3.4.4.1 0 .2.1.3.1 0 .1 0 .1 0 .1 1.6 1.5 4 2.4 6.6 2.5.2-.2.5-.3 1.1-.2.2-.7-.4-.8-.4-1.3.7-.5.9-1 .7-1.5-.1 0-.2 0-.2 0-.1 0-.1 0-.2 0-.1 0-.3 0-.6 0-2.3 0-4.3-.8-5.4-2.1-.1-.1-.1-.1-.2-.2-1.3-1.1-2.1-2.6-2.3-4.6-.1-.6-.5-1.1-1.1-1.3-.7-.2-1.3-.4-1.9-.5-.2.5-.7.8-1.2.5.2-.2.3-.5.4-.7-.8-.2-1.4-.4-2.1-.5.5.3.7.9 1.3 1.1-.3.4-.3 1.1-1 1.1.5-.8-.7-1.1-.4-2.2-1.4-.2-2.8 0-5.1 1-.5.2-.8.7-.9 1.2-.2 1.4-.7 2.7-1.5 3.7.2 0 .3 0 .5.1-.4 1.2-1.1 2.2-2.3 2.8-.1-.4-.4-.6-.7-.8-.7.3-1.5.5-2.4.5-.3 0-.3 0-.6-.1-.3-.1-.9-.4-1.8-.4-3.2 0-5.7-1.8-6.4-4.6-.2-.3-.2-.8-.3-1.2-.1-.3-.4-.6-.7-.7-1.1-.6-1.9-1-2.7-1.2-.1 0-.1.1-.2.1 0-.1 0-.1-.1-.2-1.7-.5-3.1-.2-5.5 1.1-.4.2-.7.6-.8 1.1-.5 3.5-3.3 6.1-6.5 6.1-.2 0-.3 0-.5-.1-.4-.2-.9-.4-1.8-.4-.3 0-.6-.1-.9-.2-.2-.2-.4-.4-.6-.7-.1-.1-.1-.1-.2-.2-.4-.3-.8-.7-1.1-1-.1.2-.2.4-.3.6-.6 0-.8-1-.1-1-.3-.4-.5-.8-.7-1.3-.2-.2-.4-.5-.7-.7-.7 0-.9.6-1.2 1-.6-.1-.1-1.3 0-1.8.8 0 .7-.3 1.4-.2-.1-.3-.2-.6-.4-.8-.4-.7-1.1-.8-1.6-.8 0 0 0 .1-.1.1 0 0 0-.1 0-.1-.3 0-.5.1-.7.1-.2.1-.3.1-.5.1-.7 0-1-.1-1.4-.1-.5-.1-1-.2-2-.2-1.2 0-1.8.3-2.3.5-.2.1-.4.2-.6.2-.3-.2-.8-.5-1.5-.3-.5.2-.9.6-1.1 1.1 0 0 0 .1 0 .1-.5 3.4-2.9 5.7-6.3 5.7-.9 0-1.4.3-1.8.5 0 0-.1.1-.2.1-3.2 0-5.9-2.7-6.4-6.2 0 0 0-.1 0-.1-.1-.7-.8-1.6-1.9-1.6-1.8 0-2.8.2-3.7.3-.7.1-1.4.2-2.7.3-.5-.2-1.1-.1-1.5.2-.3.2-.5.6-.5 1-.5 3.4-3.4 6.1-6.7 6.1-.2 0-.2 0-.4-.1-.3-.1-.8-.3-1.6-.3-3.4 0-6.2-2.4-6.6-5.7 0 0 0-.1 0-.1-.1-.7-.8-1.2-1.5-1.2-.3 0-.7.1-1 .3-.2 0-.3-.1-.5-.1-.4-.1-.9-.2-1.9-.2-.1 0-.1 0-.1 0-.2.1-.4.2-.5.2-.1-.1-.1-.2-.1-.2-.3 0-.6 0-.9-.1-.5 0-1-.1-1.9-.1-1.6-.1-1.9.9-2 1.4-.4 3.1-2.7 6.3-6.2 6.3-.3 0-.5 0-.7-.1-.3-.1-.8-.3-1.6-.3-3.3 0-6.1-2.5-6.5-5.9-.1-.5-.4-.9-.8-1.1-.2-.1-.4-.2-.6-.3-.5.3-.4 1.1-.8 1.4-.4-.1-.1-.9-.2-1.3.5.1.6-.1.9-.1-3-1.5-4.5-1.6-7.9.3-.4.2-.7.6-.8 1.1-.5 3.5-3.2 6-6.5 6-.4 0-.6 0-.9-.1-.3-.1-.7-.1-1.5-.1.1.2.1.4.1.6-.4.1-.5-.1-.8-.2-.1-.3 0-.4.1-.5-2.9-.3-5.2-2.8-5.6-6-.1-.5-.3-.9-.7-1.1-2.3-1.3-3.7-1.3-5.3-.9.1.1.3.1.2.4-.6-.1-.8-.1-1.2-.1-.2.1-.4.2-.6.2-.4.1-.8.3-1.2.4-.5.2-.9.7-1 1.2 0 .8-.2 1.4-.3 2 .1.2.2.4.2.7-.2 0-.3 0-.4 0-.5.9-1 1.7-1.7 2.2 0 .1-.1.1-.2.2-.5.6-1.1 1.1-1.9 1.5.1.1.2.2.3.3-.9.6-1.6 1.4-2.9 1.7.1-.4.2-.8.2-1.2-.1 0-.1 0-.2 0-.6.1-1.1.5-1.3 1.2-.1.6-.3 1-.4 1.5.3-.1.9 0 1.1.1-.1.5-.7.2-1.1.1-.1.3-.2.6-.2.8-.7 2.5-1 3.9.4 7.3.2.5.6.8 1.1.9m172.4-14.1c-.2.8 1.7 1.8 0 1.9-.1-.4 0-.6.2-.8-1.1 0-1.7-.5-2.5-.8.2-.7 1.6-.4 2.3-.3m-12.9-.6h-1c.3-.4.7-.8 1.2-1-.2.2-.2.6-.2 1m0-1.3c-.1.4-.9.7-1.3.4-.1-.5 1.3-.5 1.3-.4m-8 3.1c.4-.1.3.3.6.3.1.4-.7.1-.8.5-.7-.3.6-.3.2-.8m-4.9.7c.5.1.8.2 1.2.3-.2.3-.4.6-1 .6-.2-.4-.4-.5-.2-.9m-22.9-1.3c-.6.2-1.5-.1-1.6-1 .6.3 1.2.6 1.6 1m-12.4-5.7c0 .6-.4.9-1.1.9 0-.6.4-.9 1.1-.9m-36 6.8c.6.4.6 1.8.2 2.2-.6.1-.6-.2-.9-.3 0-.8 1.1-.8.7-1.9m-2.3.3c.7 0 .9-.4 1.5-.4 0 .7-.9.8-1.1 1.3-.5-.1-.4-.5-.4-.9m-39.1-4.2c.2.1.3.3.5.3 0 .4-.3.6-.7.6-.2-.5-.1-.5.2-.9m-22.3-4.4h1.2c-.2.1-.4 1 0 1.1-.1.3-.5.4-1 .5-.3-.3-.1-1.1-.2-1.6m161.5 76.3c0-.2.1-.5.1-.7 0-3.4 2.3-7 6-7.1.1.1.4.2.5.2.4.2.7.3 1 .4.4.1.9 0 1.2-.3.3-.3.5-.7.6-1.1.1-2.9.1-3.6 0-5.6l-.1-1.8c0-.4-.2-.8-.6-1.1-.3-.3-.8-.4-1.2-.3-.2 0-.5.1-.8.3-.2.1-.4.2-.6.2-3.6 0-6.8-3.3-6.8-6.9 0-.5 0-.8 0-1 0-.3 0-.6 0-1.3 0-3.4 3-6.1 6.8-6.1.5 0 .9-.2 1.2-.4.3 0 .5-.1.7-.3.3-.3.5-.7.6-1.1 0-.8.1-1.4.1-1.9 0-.2 0-.3 0-.4-.1 0-.2.1-.3.1-.4-.3-.7-.7-.6-1.5.2-.1.6-.1.9 0 0-.9 0-1.8-.1-3.6 0-.4-.2-.8-.6-1.1-.3-.3-.8-.4-1.2-.3-.3.1-.6.1-.8.1-3.7 0-6.7-3-6.7-6.6 0-.1 0-.2 0-.3-.1.3-.3.5-.3.8-1.4.1-1.6-.2-2.7-.5 0 1.7.4 3.2 1.2 4.6 0 0 0-.1.1-.1.3.1.4.5.4.9 1.1 1.5 2.6 2.8 4.4 3.5.1-.2.2-.4.1-.8.6 0 .7.6.4.9.9.3 1.8.5 2.8.5 0 1.5 0 2.1-.1 3.6 0 .3 0 .5 0 .8-5.3.2-9.3 4.1-9.3 9.1 0 .5 0 .8 0 1 0 .3 0 .6 0 1.3 0 5.3 4.6 9.9 9.9 9.9 0 0 .1 0 .1 0 .1 1.3.1 1.9.1 3.1-.1 0-.1 0-.2 0-5 0-9.1 4.5-9.1 10.1 0 .1 0 .1-.1.3-.2.4-.6.9-.6 2 0 5.3 4.6 9.9 9.8 9.9 0 .7-.1 1.2-.2 1.8-.1.5-.2 1.1-.2 1.9-5.1.3-9.1 4.4-9.1 9.5 0 .3 0 .4-.1.6-.1.4-.3.8-.3 1.7 0 5.1 4.4 9.6 9.6 9.8.1.9.1 1.5.2 2.1.1 1.1.2 1.9.2 3.5-.1 0-.2 0-.2 0-1 0-2 .1-3 .4-.2.7-.7.4-.4 1.3-.8.1-.7-.6-1.4-.6-1 .5-1.9 1.1-2.6 1.8 0 0 0 .1 0 .1 0 0-.1 0-.1 0-.1.1-.2.2-.2.2-1.5 1.3-2.5 3.2-2.8 5.6.4-.4.6-.9 1.6-.8.1.1.2.3.4.3-.2.6-.7 1.2-.4 1.8-.7-.2-1.2-.6-1.6-1 0 .4-.1.8-.1 1.2-.8.1-1.4.1-1.9.2-.7.1-1.3.2-2.2.2-.2-5.2-4.2-9.2-9.3-9.2-.6 0-.9 0-1.2 0-.3 0-.6 0-1.1 0-5.1 0-9.5 4-9.9 8.9-1.2 0-1.9 0-3.1-.1 0 0-.1 0-.1 0-.4-4.9-4.9-9-10-9-.9 0-1.4.2-1.8.4-.2.1-.3.1-.5.1-5.2 0-9 3.8-9.2 9 0 0 0 .1-.1.1-.8 0-1.3 0-1.8.1-.6 0-1.2.1-2.4.1 0-5.2-4.5-9.6-9.7-9.6-.5 0-.8 0-1 0-.2 0-.5 0-.9 0-5.4 0-9.9 4.2-10.1 9.3-.6 0-1-.1-1.5-.1-.6-.1-1.1-.1-2-.1-.3-4.5-3.9-8.4-8.5-9 0 0-.1.1-.1.1 0 0 0-.1 0-.1-.2 0-.4-.1-.6-.1h-.4c0 0 0 .1 0 .1-1-.1-1.8-.1-3.2-.2-.1-.1-.1-.1-.1-.2-4.8.6-8.8 4.8-8.9 9.6-.4 0-.7 0-1 0-.5 0-.9 0-1.6 0 .3.7.9 1.2 1.3 2-1.3.1-1.8-.8-1.7-2-.2 0-.5 0-.8 0-.4 0-.6 0-.9 0-.1 0-.3 0-.6 0-.2 0-.3 0-.4 0 0-2.8-1.4-5.8-3.6-7.7-.5-.5-1-.6-1.3-.7 0 0-.1 0-.1 0-.1-.1-.3-.2-.4-.2-.1 0-.1-.1-.2-.2-.4-.3-1-.9-1.9-.9-.6 0-1 0-1.3.1-.3 0-.5 0-1 0-3 0-5.8 1.5-7.7 3.7.1 0 .2-.1.3-.1-.2.5-.4 1.4-1.1 1.3-1 1.5-1.5 3.2-1.5 5-.6 0-1.1-.1-1.6-.2-.5-.1-1.1-.2-1.8-.2-.1-3.1-1.7-5.9-4.1-7.6-.3.4-1.2.3-1.8.5-.5-.6.2-.9 1-1-.3-.2-.6-.4-1-.5-.1.2-.2.5-.4.7-.7-.1-1.4-.2-1.8-.6.2-.2.4-.4.6-.6-.1 0-.3-.1-.4-.1 0 .3-.4.3-.4.6-.5-.1-.3-.4 0-.6-.5-.1-.9-.1-1.4-.1-.9 0-1.5.3-1.8.5-.2.1-.3.1-.5.1-1.3 0-2.6.3-3.7.7-.1.1-.1.2-.2.3-.1 0-.2 0-.2-.1-1.2.6-2.3 1.4-3.2 2.5.2.3.4.5.7.8-.4.1-.8 0-1.1-.2-.9 1.4-1.5 3.1-1.5 5-.4 0-.7 0-1 0-1.9.1-2.7.1-4.7.1 0 0 0-.1 0-.1 0-1.3-.3-2.6-.8-3.8-.5.1-1 .2-1.1.6-.1.5.3.6.2 1.1-.7-.1-1.1-.4-1.7-.3.2.6.4 1.2.4 1.7.4.1.6.4.7.8-.3.1-.5.1-.8.1 0 .1-.1.2-.1.3-.1.2-.2.5-.2.6-.1.4 0 .7.2 1 .3.4.7.4 1.2.4.2 0 .5-.5.8-.8.8 0 .6.8 1 1.1.9.2 1.1-.2 1.7.2 1.1 0 1.9 0 3.3-.1.6 0 1.4 0 2.3-.1.4 0 .8-.2 1.1-.6.2-.3.3-.7.3-1 0 0 0-.1 0-.2.1-.3.1-.6.1-.9 0-3.6 2.7-6.4 6.3-6.4.9 0 1.5-.3 1.8-.5.2-.1.3-.1.5-.1 3.5 0 6.6 3.3 6.6 7 0 .1 0 .1-.1.3 0 .1-.1.3-.1.4-.1.4 0 .9.3 1.2.3.3.7.5 1.1.6 1.5.1 2.3.2 3 .3 1.1.2 2.1.3 4.3.2.4 0 .8-.2 1.1-.6.3-.3.4-.8.3-1.2-.1-.4-.2-.7-.4-1-.1-.1-.1-.2-.2-.3 0-.6.1-1.3.4-1.9-.2-.2-.1-.6-.1-.9.1 0 .3.1.4.3 1.1-2.4 3.7-4.3 6.5-4.3.6 0 1 0 1.3-.1.2 0 .4 0 .8 0 0 0 .1.1.1.1.3.2.6.5 1.1.7.3.2.6.3.9.3 0 0 .1 0 .1 0 0 0 0 0 .1 0 1.6 1.3 2.6 3.5 2.6 5.4 0 .2-.1.8-.3 1.5-.1.4 0 .9.2 1.2.2.4.6.6 1 .7.2 0 .4 0 .6 0 .7 0 1.1-.2 1.4-.3.2-.1.3-.1.5-.1.4 0 .7 0 .9 0 .1 0 .3 0 .6 0 1.1 0 1.7 0 2.3 0 0-.3.2-.6.3-.9.3 0 .4.2.7.1 0 .3-.1.6-.2.8.6 0 1.2 0 2.3 0 .5 0 .9-.2 1.2-.6.2-.2.3-.5.3-.8.1-.2.1-.4 0-.6-.1-.3-.2-.5-.2-.7v-.1c.1-3.6 3.4-6.9 7-6.9.3 0 .3 0 .5.1.2.1.5.1.8.2.1-.1.3-.2.6-.1 0 0 0 .1 0 .1 0 0 0 0 .1 0 1.3 0 2.6.4 3.7 1.1-.1-.2 0-.6-.1-.9.2.3.4.7.6 1.1-.1 0-.2 0-.2 0 1.7 1.2 2.8 3.1 2.9 5.1-.1.1-.1.2-.2.3-.3.4-.5.7-.6 1.2-.1.5.1.9.4 1.3.3.3.7.5 1.2.5.5 0 .9-.3 1.2-.5 1.3 0 1.9.1 2.7.2.9.1 1.8.2 3.5.2.9.2 1.4-.2 1.6-.5.3-.3.5-.8.4-1.3-.1-.5-.4-.8-.6-1.1 0 0 0-.1-.1-.1 0 0 0-.1 0-.1-.1.2-.2.3-.4.4-.8.2-.8-1.1-.2-1.1.4-.1.6.2.6.5.4-3.2 3.5-6 7-6 .5 0 .8 0 1 0 .2 0 .5 0 .9 0 3.6 0 6.7 3.1 6.7 6.7 0 .2 0 .4 0 .5 0 .1 0 .1 0 .1 0 .2 0 .3 0 .5 0 .3 0 .8.4 1.3.3.3.7.5 1.2.5.3 0 .5 0 .6 0 .1 0 .2 0 .5 0 1.4 0 2.1 0 2.8-.1.7 0 1.3-.1 2.7-.1.4 0 .9-.2 1.1-.5.2-.2.4-.5.4-.9.2-.3.5-.7.5-1.4 0-3.7 2.5-6.2 6.2-6.2.9 0 1.4-.2 1.8-.4.2-.1.3-.1.5-.1 3.5 0 6.7 2.9 7 6.2-.2.2-.4.5-.5 1-.1.4 0 .9.3 1.2.3.3.7.5 1.1.6.9 0 1.5.1 2.1.1 1.7.1 2.4.1 5.2 0 .4 0 .8-.2 1.1-.6.3-.3.4-.8.3-1.2-.1-.4-.2-.6-.4-.8.2-3.4 3.3-6.2 6.9-6.2.6 0 .9 0 1.2 0 .3 0 .6 0 1.1 0 3.5 0 6.3 2.9 6.3 6.6 0 .4.1.7.1.9 0 0 0 .1 0 .1 0 .4.1.7.3 1 .3.3.7.5 1.1.6 2.1.1 3 0 4-.2.7-.1 1.4-.2 2.7-.3.5 0 .9-.2 1.1-.6.1-.2.2-.4.3-.6.2-.3.4-.7.4-1.2 0-1.5.3-3.5 1.5-4.8-.1-.3 0-.9.2-1 .3.1.4.2.4.4 0 0 .1-.1.1-.1 1.1-1.4 3.2-2.3 5.4-2.3.2 0 .4 0 .6 0 .3 0 .6 0 .8 0 .4.1.8-.1 1.1-.3.3-.3.5-.6.5-1.1.2-2.8.1-4-.1-5.5-.1-.9-.2-2-.3-3.7 0-.4-.2-.8-.6-1.1-.3-.3-.8-.4-1.2-.3-.3.1-.6.2-.8.3 0 0 0 0-.1 0-2.6-.1-5-1.7-6.1-3.9 0 0-.1.1-.1.2-.3-.1-.3-.4-.1-.6-.3-.8-.5-1.6-.5-2.4 0-.3 0-.4.1-.6.1-.4.3-.8.3-1.7 0-.7.1-1.4.3-2.1-.2-.4-.5-.7-.5-1.2.4-.1.8-.2 1.2-.3 1.2-1.8 3.2-3 5.5-3 .4 0 .5 0 .6 0 .4.1.9 0 1.2-.3.3-.3.5-.7.6-1.1.1-1.5.2-2.3.3-3 .2-1.1.3-2.1.2-4.2 0-.4-.2-.8-.6-1.1-.3-.3-.8-.4-1.2-.3-.3 0-.5.1-.8.3-.1.1-.4.1-.5.2-3.6 0-6.8-3.3-6.8-6.9 0-.1 0-.1.1-.3.1-.2.2-.4.4-.7 0-.2-.1-.3-.2-.3.4-.4.5-.5.7-.5m-2.4-2.5c0-.5.7-.4 1.2-.5-.2.4-.8.8-1.2.5m-1.1 31.6c-.1-.4 0-.6.2-.8h.8c-.1.5-.4.7-1 .8m-159.6 23.3c-.2 0-.7-.7-.2-.8h.4c.1.4 0 .6-.2.8m2.6 2.6c-.4-.6-1.5-.6-2-1.1-.1-.6 1.1-.2 1.6-.3.2.2.6 1.2.4 1.4m5-4.2c.1-.4-.4-.4-.2-.8.8-.4.9.9.2.8m62-6v1c-.5 0-.7-1.2 0-1m5.1 3.4c-.1-.5.3-.5.2-1 .2.1.4.2.8.2-.3.3-.1 1-1 .8m5.5 5.4c.4.5-.8.8-.8 1.5-.7-.4-.1-1.5.8-1.5m-.4 2.5c-.2-.2-.3-.4-.2-.8.5-.1.4.3 1 .2.1.4-.2.6-.8.6m7.1-8.1c-.3-.2 0-.8.5-.7.5.2.1.7-.5.7m2.9-.7c-.1-.5.3-.6.4-1 .6 0 .1.9-.4 1m74.5-3.7c0 0 .1 0 .1-.1 0 .1 0 .1-.1.1m4.4-107.6c.1 1.1 0 1.7-.1 3-.8.1-1.6.2-2.3.5.1.1.2.1.2.2 0 1.1-.6 1.6-.8 2.6-1.5.5-2.2.8-2.9 1.8-.4.1-.2-.5-.6-.5 1.2-.9 3.1-1.7 2.8-3.6-2.2 1.1-4 2.9-4.9 5.2.4-.2 1.2-.1 1.9-.1 0 .7.1 1.5-.4 1.8-.6 0-.7-.4-1-.6-.4.2-.7.3-1 .6-.1.4-.1.7-.2 1.1.7.8.7 1.2.9 2.5 1.7-.1 1.3-1 2.3-1.8 0-1.1.2-2.2.7-3.1-.1 0-.4.1-.6.1-.3-.5-.5-.7-.2-1.1.6-.1.9.1 1.1.4.9-1.3 2.3-2.2 3.9-2.6 0 0 0-.1 0-.1.1 0 .1 0 .2 0 .4-.1.9-.1 1.4-.2.1 0 .3.1.6.1.4 0 .8-.1 1.1-.3.2-.1.3-.3.4-.5-.6-.5-1.8-1.6-.1-1.7.2.3.2.7.2 1.1l.1-.7c.1-1.3.2-2.1.2-2.8-.2 0-.3 0-.5.1-.1-.2-.3-1.2-1.2-1.6-.3-.1-.7.4-1.2.2m-.6 5.9c-.4-.1-.1-.8-.2-1.1.3.2.6.8.2 1.1m-161.3 34.2c.1-.3.5-.6.8-.4 0-1.5.1-3.3-1.9-3.2l-.2 3.1c.7-.1 1.1.1 1.3.5m-1.1-1.4c0-.2 0-.5 0-.7 1.3-.2 1.3.8 0 .7m148.1 56.2c0-.5.1-1 .1-1.4l.2-16.8c0-1.2 0-3 .1-4.2l.4-16.8c0-1.2 0-3 0-4.2l-.1-16.7c0-1.2 0-3 0-4.2l-.2-16.8c0-1.2-.2-2.5-.5-3.1-.3-.5-.7-1.5-.9-2-.2-.6-.9-1.2-1.5-1.4-.4-.1-.9-.3-1.3-.4-.4 0-.7-.1-.9-.2-.6-.1-1.9-.2-2.9-.2h-2.6c1.6 1.3.2 4 2.1 5-1.5.7-5.6-1.3-2.9-2.8-.3-1-.1-1.8.7-2.2l-27.2-.2c-1.2 0-3 0-4.2 0h-1c-.6.4-1.1.9-.8 1.4.7.1.9-.8 1.6-.3-.3 1.2-2.1.9-3.3.7-.1-.4-.3-.7-.2-1.3.4-.3.4.1 1 0 .1-.2.2-.3.4-.4h-1.8c.1.1.1.2.1.3-.6 0-.9-.2-1.3-.3l-16.6-.2c-.3 0-.6 0-.6.3-.4 0-.5-.1-.6-.3l-6.6-.1c-1.2 0-3 0-4.2 0h-1.4c-.3.1-.5.1-.7 0l-27.8.2c-1.2 0-3 0-4.2 0l-29.9.1c-1.2 0-2.6.1-3.1.3-.6.2-1.5.5-2 .8-.5.3-1.2.9-1.4 1.5-.1.2-.2.4-.3.6 0 0 .1 0 .1 0 0 .4-.2.6-.5.8-.1.2-.2.4-.2.5-.1.3-.2.8-.3 1.5.1 0 .2 0 .3 0-.1.7.3 1 .6 1.5 1.4.4 2.5.2 4.2.4-.3.9-1.8.8-2.7 1.2-.4-.4-.8-.9-1.4-1.2-.5.3.1 1.4-.9 1.6 0 0-.1 0-.1 0v2c.4 0 .7.2.8.5.2-.1.3-.4.4-.6-.1-.1-.4.5-.6-.5 0 0 0 .1 0 .1-.1-.1-.1-.2-.1-.4.1 0 .1 0 .2 0 .1-.1.1-.2.2-.3.2 0 .3.1.4.2.4-.1.7-.1 1.1.1-.3.7-.7 1.1-.4 2-.4.5-1.3.4-1.8.7-.1 0-.1-.1-.1-.1v.7c.3.1.6.1.9.2 0 1-.8 1.3-.7 2.3.1.3.5-.2.7.1.2.3-.1.4.2.9-.4.3-.7-.2-1.1-.3l-.1 5.7c.4.2.8.5 1.7.6 0-.1 0-.2.1-.3.1.1.1.2.2.3.4 0 .1-.5.1-.7.6 0 .8-.3 1.3 0-.4.6-1.4.8-1.3 1.8-.1 0-.2 0-.3 0-.3.4-.6.9-.2 1.6 0 0-.1 0-.1 0 .4.2.8.4 1.2.6 0 .8-1.5.4-2.1.7.1.1.2.1.2.2 0 .2-.1.3-.3.4.2.8 1.1.9 2.4.7.5 0 .4-.5.4-.9 1 .3 2.1.5 2.7 1.2-.9.4-.6 2-.4 2.8-.5 0-2.1-.1-2.4-.7-.4.3-1.2.2-1.1.9.2.3.9.3 1.1 0 .8.2 1.2.7 1.1 1.6-.6.4-1.2.4-1.7.3-.2.3-.3.7-.2 1.3-1.5.2-1.3-1.5-2.7-1.1l-.1 2.5c.2 0 .5 0 .7 0 0 .2 0 .3.2.3 0 .3-.8 0-.7.4-.1 0-.1-.1-.2-.1l-.9 2.1c.8-.1 1.5-.2 2.1-.4 0-.1 0-.2 0-.3.2-.2.9-.2 1.2 0 .1.1.3.2.5.2-.2.2-.2.5-.2.9-.4.3-1.1.4-1.6.6 0 .4-.1.9.4.9-.7.7-1.6-1.2-.7-1.3-.7-.3-1 .2-1.4.6 0 .1.1.2.2.2 0 .1-.2.2-.4.2l-.1 2.8c.3.2.7.2.6.7-.3 0-.4-.1-.6-.2v1c0 1.2 0 3 0 4.2l.7 14.2c.7.3.6 1.2.1 1.6v1c.1 1.2.1 3 .2 4.2l.4 16.8c0 .1 0 .2 0 .2.6 0 .8.3 1.3.3-.6 0-.9.4-1.3.5 0 .8.1 1.6.2 2 .1.5.5 1.4.8 1.8.3.5 1 1.1 1.5 1.3.5.3 1.3.7 1.8.9.3.1.8.3 1.4.3.1-.2.3-.4.7-.4.3.2.8.2 1.1.5l29.8.2c1.2 0 3 0 4.2 0l29.9.3c1.2 0 3 0 4.2 0l29.9-.1c1.2 0 3 0 4.2 0l29.9-.2c1.2 0 2.6-.2 3.1-.4.6-.2 1.4-.7 1.8-1 .2-.1.4-.3.6-.5-.3 0-.4-.2-.7-.1-.1-.6.2-.8.4-1.1.6.1.7.7.5 1.2.3-.3.6-.5.8-.7.4-.4.8-1.2 1-1.8.1-.3.2-.8.2-1.4-.1 0-.2 0-.3 0 .1.6 0 1-.4 1.3-1.1-.7-.2-1.4.5-1.8m-147.9-50.8c.3-.3.6-.7 1.5-.6 0 .3.2.3.2.6-.6.2-1.3.4-1.7 0m-.5 17.5c.1-.4.2-.8.8-.8 0 .4-.1.9-.8.8m.5-13.2c-.1-.1-.4-.8 0-.9.6-.1.6 1.2 0 .9m.5 21c0-.4.3-.5.4-.8.7.1.2.8-.4.8m.8-19.2c-.4-.4-.2-1.2.8-1 0 .6-.2.9-.8 1m6.7-39.1c-.1 1 .5.9.5 1.6-.3 0-.5 0-.5.2-.3-.7-1.3-.6-1.3-1.2-.6 0-.5.7-1.1.7 0-.7.5-1.3.6-1.3h1.8m-1.1 15.7c-.6.1-.7-.1-.9-.3 0-.3.7-.1.7-.4.4 0 .1.5.2.7m1.1 9.4c-.6.4-.7 1.3-1.8 1.3.7-.3.6-1.9 1.8-1.3m0-21.5c-.7-.1-1.2.4-1.6 0 .5-.4.8-1.1 1.8-1.2-.2.2-.2.3.2.3-.1.4-.3.7-.4.9m-2.8-6c.6 0 1.6-.2 1.4.4-.5 0-1.5.3-1.4-.4m-2.5 14.3c-.4-.3-.1-.8.2-1 .6.2.8.6 1.8.4 0 .8-1.4.4-2 .6m2.7 4.9c-.6 0-.9-.7-.6-1 .4.1.7.4.6 1m-.7-8.5c-.1-.2-.4-.3-.7-.3-.1-.8.9-.6 1.6-.6-.3.3-.2.3.4.3-.4.2-.8.5-1.3.6m-1.4 63.3c-.2-1.8 1.1-1.1 2-1.5.1.6 0 1.1-.2 1.5-.5.1-1.4.3-1.8 0m1.2 17.1c.2-.4.7-1.2 1.2-.8-.1.5-.8.5-1.2.8m1-43.9c-.8-.6-.8-.4-1.8-.4.1-.4.6-.6.9-.9.7 0 1.3.7.9 1.3m1.1-15.2c-.7-.5-1.4-1-1.5-1.9.6.3 1.3.1 2 0 .4.7-.3 1.2-.2 1.8-.2-.1-.3 0-.3.1m0 53.1c.1-.2.3-.4.4-.7.4 0 .4.4.4.8-.4.1-.5-.1-.8-.1m.8 4.8c.2 0 .4 0 .4-.2.8-.1 1.1.3 1 1-.6.2-.8.2-1.4 0 0-.2 0-.5 0-.8m1.4 2.3c-.6.1-.6-.3-1-.3.2-.3.6-.5 1.2-.5-.2.2-.3.4-.2.8m.3-88.5c.4 0 .7.1.9.2.3-.2.9.2.4.6.2.5.3 1.1.3 1.4-1.2.1-2.1-.9-1.6-2.2m2.5 1c-.1-.6.4-.6.4-1.1.7.1.2 1-.4 1.1m5.3-2.2c-.1-.1-.2-.3-.2-.6.6 0 .9-.5 1.5-.1-.6.1-.5.7-1.3.7m1 80.6c-.2-.5.7-.2 1.1-.3-.3.2-.8.5-1.1.3m1-79.1c-.1-.6.6-.6 1.1-.7.3.2.2.7.5.9-.2.2-1.2-.2-1.6-.2m4.3 73.9c.4-.7 1.4.1.8.6-.3-.1-.3-.6-.8-.6m1 5.8c-.2-.4-.3-1.1.6-1 0 .5 0 1.1-.6 1m2.7-77.5c-.8.1-.7-.5-.9-.9.7-.1 1.1.1 1.1.6-.2 0-.2.1-.2.3m4.6-5.1c-.4.6.3 1 .8 1.3 0 .6-.3.9-.6 1.3-.9-.4-.4-1.5-1.2-2.3.5-.1.6-.4 1-.3m.7 13.3c.1.6-.6.5-1.2.5.1-.4.5-.6 1.2-.5m-1.2 5.4c-.2-.8.7-1.5 1.7-2.3v1.3c-.9 0-.7 1-1.7 1m1.6 70.3c-.3-.2-.3-.9.4-.8.1.4.3.7-.4.8m.7-87.9c-.7-.1-.4-1-1.4-1 .2-.4 1.2-.6 2-.2 0 .6-.4.8-.6 1.2m2.4 8.9c.1.7-.2.9-1 .8-.1-.5.5-.6 1-.8m.2 6.1c-.5 0-.9 0-1.2-.2 0-.3.2-.3.2-.7.6.1.7-.2 1.2-.2.2.6 0 .7-.2 1.1m-.5-16.3v-.4c.3-.3 1-.2 1.1.1-.1.2-.5.3-1.1.3m1.5 62.3c-.4-.2-.1-1 .6-.8.1.5-.5.4-.6.8m17.5-46.4c-.1.5-1.9.7-2.2.1.1-.1.2-.2.2-.4.6-.3 1.7-.2 2 .3m-1.9-13c-.1.7-.3 1.2-1.2 1.1-.1-.7.7-1.3 1.2-1.1m-8.2-6c.4 0 .4.2.8.2 0 .7-.5 1-1.4 1-.1-.7.8-.5.6-1.2m-5.5 17.1c.5 0 .4.5 1 .5-.1.2-.3.3-.4.5-.4-.2-.6-.5-.6-1m.4 53.9c-.1-.5.3-.5.2-1 .3.1.9 1.2-.2 1m2.7 3.7c0-.4-.1-.8.2-1 .7.1.7 1.1-.2 1m.6-58.4c.8-.4 1.2-1 2.2-1.3.2 1.2-.5 1.6-1.6 1.8-.6-.2.1-.5-.6-.5m2.2 3.1c-.9.1-1-.4-1.6-.5.1-.7 1.9-.3 1.6.5m-1.3 65.5c.8.1 1.2.5 1.3 1.2-.8-.1-1.5-.3-1.3-1.2m.7-2.7c.2-.1.5-.2.9-.2.2 1-1 1.1-.9.2m1-6.5c0-.3-.1-.6.2-.7.7-.2.5 1-.2.7m-.8-57.8c-.1-.1-.2-.4-.2-.6 1.5.5.6-.8 1.8-.8 0 .2 0 .3.2.3-.3.7-1 .9-1.8 1.1m4.3 16.7c.4-.7.4-1.8 1.8-1.7 0 .8-.4 1.3-.5 1.9-.5-.1-1.1 0-1.3-.2m3.5 57.9c-.8-.2-1.3.7-2.2.3v-.4c.4-.3 1.3-.1 1.1-.9.2.1.3.2.5.3.1-.2.2-.3.3-.5.5 0 .6.9.1 1 0 .1.1.1.2.2m2.5-2.7c-.6-.3-1.5-.4-2 0 .3-.7-.5-1.1.7-1.3.4.4 1.5.3 1.3 1.3m1.9-4.1c-.4-.3-.1-.7.2-1 .6.1.4 1.1-.2 1m1.5-5.2c-.2-.2-.2-.4-.2-.8h.8c.1.5.1.9-.6.8m2-8.3v-.5c.6.1.6-.3 1.2-.2.4.4-.7 1.2-1.2.7m2.3 11.7v-.7c.6.1 1.4.1 1.6.6-.1.5-.9-.1-1.6.1m5.8-7.7c-.5-.3.1-.9.7-.7.1.4-.5.4-.7.7m.3-72.6c-1.9-.2 0-.7.2-1.3.7-.1.9.3 1.3.4-.5.6-1.5-.1-1.5.9m8 89.4c-.7.1-.7-.6-.4-.8.5.1.5.4.4.8m.5-92c-.1-.5.8-.2 1.1-.4-.1.5-.6.6-1.1.4m4.6 90.7c-.4 0-.1-.6-.2-.8.9 0 .6.6.2.8m2-3.2c-.1-.4-.2-.7-.6-.8-.1-.4.4-.2.4-.5.8 0 1.2.2 1.4.6-1-.2-.3.9-1.2.7m2.1 0c.2-1.2.2-1.5.4-2.3.7.6.5 1.1 1 2.1-.3.3-.9.5-1.4.2m9.7-48c0-.2 0-.3-.2-.3.4-.2.7-.5.4-1.3.8 0 1.2.5 1.5 1-.7.2-.9.6-1.7.6m2.9 0c0-.5.1-.9.7-.9.5.4.1 1-.7.9m5.2 2.1c.1-.5.4-.8.6-1.3.3.2.1 1.4-.6 1.3m1.4 23.7h-.6c-.4-.3-.3-1.2.6-1-.1.6.4.7 0 1m40.2-49.7c.3.4.4.3.2.8-.6-.2-.4 0-1.2 0 .3-.3.4-.8 1-.8m-1.3 9.3c.8 1.1.8 2 1.6 2.9-1.3.2-2.3-1.4-2.4-2.8.3.1.4-.1.8-.1m-1 35c.3-.7 1 0 1.6 0 0 .5 0 .9-.6.8.3-.5 0-.9-1-.8m.6-26c.2.6-.2.7-.4 1-.3-.2-.4-.6-.4-1h.8m-5 21.3c.4.1 0 .8.4.9.6-.2.7-.7 1.6-.6 0 .4.3.6.4 1-.5.4-1-.5-1.1.4h-1.8c-.2-.8-.4-1.4.5-1.7m-3.3-47.8v-.7c.7-.2 1 .9 0 .7m-.3 39.8c-.4-.4 0-.8.2-1.1.6 0 .5 1.2-.2 1.1m-2.4-42.1c.4.1.5.5.8.6.5-.2.8-.6 1.8-.5-.6 1.4 0 1.9-.2 3.3-.5-1.3-3.3-1.5-2.4-3.4m1.8 48.3c.1.7.1 1.3-1 1.1 0-.7.4-1 1-1.1m0-4.4c.1.6-.8.4-.8.8-.5-.3.2-.9.8-.8m-5.3-43.1c1 .1 1.1-.5 1.4-1 1 .1-.7 1.8 1 1.6 0 .4 0 .8-.2 1-.8-.5-1.2-.9-2.3-.8 0-.2.1-.4.1-.8m-21.3.8h-.4v-.8c.6-.1.3.5.4.8m2.7-4.5c-.3 1 .7.8.6 1.6-1.2.4-1.4-1.5-.6-1.6m.2 2.6c.2-.8.7-1.3 1.8-1.3.5.3.7.8.6 1.5-1.2.2-1.6-.5-2.4-.2m4 52.4h1c.2.6-.2.8-.8.8-.2-.2-.3-.4-.2-.8m.9 4c-2.1-.3 1-1.7 0 0m3.1-58.9c-.7.1-.8-.2-1.2-.3 0-.6.7-.7 1.4-.8.1.5-.1.8-.2 1.1m5.7-1.5c0 .2.1.4.4.4-.3.2-.5.4-.4 1-.3-.1-.3-.5-.4-.8-.7.2-1.1.6-1 1.5-1.7.5-2 2.9-3.5 2.9-.1-.6.7-.4 1-.6-.5-1.5 2.6-2.1 1.8-3.9.5-.6 1.8-.1 1.7-.8.1 0 .2 0 .2.1.2-.1.5-.1.6.1 0 .1-.1.1-.4.1m2.7 4.5c.1-.2.4-.3.4-.5.8 0 1.1.3 1 1-.8 0-.8-.5-1.4-.5m1.8 53.3c-.5-.1-.5-1.1.4-1 .2.7-.4.5-.4 1m.2-27c.2-.7.8 0 1 .3-.4.6-.8-.1-1-.3m2.4 25c0 .1 0 .1 0 0-.1.1-.3.1-.4.1-.1 0-.3.1-.4.1 0 0 0-.1 0-.1-.5 0-.8-.2-.9-.5.1-.3.9-.4 1.3-.2.4-.4 1.1-.6 1.7-.4-.2.6-.7.8-1.3 1m1.9 5.8c-.6-1 .2-2.2 1.6-2.1-.6.6-.3 1.9-1.6 2.1m1.6 1.1c0-.5.2-.8.8-.8-.1.4-.2.8-.8.8m.8-29.8c-.1-.6.1-.9.4-1.1.6 0 .5 1.4-.4 1.1m1.4 31.9c.4-.8-.2-.8-.8-1.1 0-.6.8-.7 1.6-.7.1.3.3.6.4 1-.9-.1-.4.9-1.2.8m1.7 7.5c.1-.6.6-.7 1.2-.8.1.6-.3.9-1.2.8m1.6 16.9c-.4-.3-.3-1.2.6-1 0 .5.1 1.1-.6 1m1-34.3c.6-.1 1 0 1.5.1-.7.5-.2 1.5.7 1.5-.7.5-2.1-.7-2.2-1.6m1.4 25.1c1.2-.2.7.8.4 1.1-.6 0-.4-.7-.4-1.1m3.9 8.4c-.6.4-.5-.5-1.4-.3-1.1.2-.9 1.4-1.8 1.8-.4-.6.4-1 0-2 1.2-1.1 2-.5 3.1-.2l.1.7m-139.3 4.4c0 0 0-.1 0-.1-.1 0-.2.1-.3.1.1-.1.2-.1.3 0"/></svg>